<svg xmlns="http://www.w3.org/2000/svg" viewBox="0 0 80 80"><path d="M56.5 6.7a3.8 3.8 0 013.795 3.604l.005.196v2.2H63l.224.005.297.02.215.026.179.028.228.045.227.055.205.059.188.062.267.103.275.123.212.109.297.173.262.176.285.218.16.137.255.242.204.219.113.133.132.167.153.212.187.294.15.27.136.286.098.238.089.249.084.285.024.092.055.252.051.309.009.065c.017.141.029.285.035.43L68.3 18v48a5.3 5.3 0 01-5.082 5.296L63 71.3H17a5.3 5.3 0 01-5.296-5.082L11.7 66V18a5.3 5.3 0 015.082-5.296L17 12.7h2.7v-2.2a3.8 3.8 0 013.405-3.78l.2-.015.195-.005a3.8 3.8 0 013.795 3.604l.005.196v2.2h25.4v-2.2a3.8 3.8 0 013.405-3.78l.2-.015.195-.005zm9.201 58.86a5.27 5.27 0 01-2.407.732L63 66.3H17c-.986 0-1.91-.27-2.7-.739V66a2.7 2.7 0 002.53 2.695l.17.005h46a2.7 2.7 0 002.695-2.53L65.7 66l.001-.44zM65.7 25.3H14.3V61a2.7 2.7 0 002.53 2.695l.17.005h46a2.7 2.7 0 002.695-2.53L65.7 61V25.3zm-26.86 6.111c.46-.907 1.72-.946 2.25-.118l.068.118 3.405 6.697 7.612 1.036c1 .136 1.441 1.285.88 2.05l-.079.097-.09.093-5.491 5.108 1.325 7.275c.179.977-.748 1.753-1.646 1.481l-.112-.04-.111-.05L40 51.662l-6.85 3.496c-.886.452-1.895-.214-1.893-1.152l.006-.118.017-.121 1.326-7.275-5.491-5.108c-.74-.687-.438-1.88.462-2.182l.12-.035.128-.023 7.612-1.036 3.403-6.697zM40 34.87l-2.552 5.025a1.3 1.3 0 01-.845.673l-.14.026-5.567.757 4.003 3.724a1.3 1.3 0 01.414.895l-.002.145-.018.145-.983 5.388 5.101-2.603a1.3 1.3 0 01.893-.106l.147.044.142.062 5.099 2.603-.982-5.388a1.3 1.3 0 01.204-.964l.088-.115.102-.106 4.001-3.724-5.566-.757a1.3 1.3 0 01-.83-.464l-.082-.113-.071-.122-2.556-5.025zM19.7 15.3H17a2.7 2.7 0 00-2.695 2.53L14.3 18v4.7h51.4V18a2.7 2.7 0 00-2.53-2.695L63 15.3h-2.7v.2c0 2.033-1.597 3.693-3.643 3.794l-.199.005-.207-.007a3.8 3.8 0 01-3.546-3.593L52.7 15.5v-.2H27.3v.2a3.802 3.802 0 01-3.446 3.78l-.197.014-.199.005-.207-.007a3.8 3.8 0 01-3.546-3.593L19.7 15.5v-.2zm3.8-6a1.2 1.2 0 00-1.194 1.077l-.006.123v5c0 .59.429 1.086.962 1.181l.116.014.122.005a1.2 1.2 0 001.194-1.077l.006-.123v-5a1.2 1.2 0 00-1.2-1.2zm33 0a1.2 1.2 0 00-1.194 1.077l-.006.123v5c0 .59.429 1.086.962 1.181l.116.014.122.005a1.2 1.2 0 001.194-1.077l.006-.123v-5a1.2 1.2 0 00-1.2-1.2z" fill="currentColor" fill-rule="evenodd"/></svg>