<svg xmlns="http://www.w3.org/2000/svg" viewBox="0 0 80 80"><path d="M54.826 10.7c.77 0 1.396.59 1.467 1.334l.007.142v2.523l4.312.001a4.3 4.3 0 014.179 5.314c-1.787 7.364-5.54 12.444-11.238 15.124-.046.021-.093.04-.14.056a30.235 30.235 0 01-1.905 3.914c-2.266 3.892-5.102 6.528-8.212 7.622.148 2.93 1 5.724 2.405 7.972L47 54.7a3.3 3.3 0 013.295 3.113L50.3 58v3.7H52a3.3 3.3 0 013.295 3.113L55.3 65v4.3H24.7V65a3.3 3.3 0 013.113-3.295L28 61.7h1.7V58a3.3 3.3 0 013.113-3.295L33 54.7l1.298.002c.258-.415.501-.852.726-1.31.985-2.017 1.554-4.302 1.667-6.67-3.106-1.095-5.936-3.728-8.2-7.614a30.258 30.258 0 01-1.88-3.847c-.184 0-.373-.04-.552-.123-5.699-2.68-9.45-7.76-11.238-15.124a4.3 4.3 0 013.97-5.309L19 14.7l4.7-.001v-2.523c0-.76.577-1.397 1.33-1.47l.142-.006h29.654zM52 64.3H28a.7.7 0 00-.694.605L27.3 65v1.7h25.4V65a.7.7 0 00-.505-.672l-.1-.022L52 64.3zm-5-7H33a.7.7 0 00-.694.605L32.3 58l-.001 3.7H47.7V58a.7.7 0 00-.505-.672l-.1-.022L47 57.3zm-6.262-9.831l-.367.023-.462.009-.214-.002-.213-.006-.236-.013-.01.14a19.787 19.787 0 01-1.458 5.993l-.204.465-.215.458-.085.164h5.448l-.066-.131c-.932-1.893-1.557-4.014-1.83-6.228l-.057-.513-.031-.359zm-17.554-1.197a1.3 1.3 0 01-.242 1.725l-.107.08-2.727 1.844a1.3 1.3 0 01-1.563-2.074l.106-.08 2.728-1.844a1.3 1.3 0 011.805.349zm33.632 0a1.3 1.3 0 011.691-.418l.114.069 2.728 1.844.106.08a1.3 1.3 0 01-1.449 2.143l-.114-.069-2.727-1.844-.107-.08a1.3 1.3 0 01-.242-1.725zM53.7 13.3H26.3v5.946c0 6.632 1.398 12.855 3.932 17.645l.249.459.256.45c2.623 4.502 5.924 6.9 9.264 6.9 3.338 0 6.639-2.398 9.26-6.9 2.767-4.75 4.342-11.097 4.435-17.914l.004-.64V13.3zm6.414 26.471l.134.003 4.85.366.132.017a1.3 1.3 0 01-.195 2.579l-.133-.003-4.85-.366-.132-.017a1.3 1.3 0 01.194-2.579zm-38.967 1.202a1.3 1.3 0 01-1.067 1.377l-.132.017-4.85.366a1.3 1.3 0 01-.328-2.576l.132-.017 4.85-.366a1.3 1.3 0 011.395 1.199zM39.905 16.7c.954 0 1.833.5 2.316 1.31l.092.165 1.567 3.12 3.52.502a2.687 2.687 0 012.027 1.457l.078.17.066.178c.302.911.085 1.905-.554 2.61l-.133.137-2.532 2.42.598 3.415c.153.88-.15 1.766-.785 2.371l-.14.126-.152.116a2.7 2.7 0 01-2.62.293l-.195-.091-3.153-1.627-3.153 1.627a2.713 2.713 0 01-2.47.007l-.174-.097-.169-.111a2.654 2.654 0 01-1.104-2.427l.026-.188.596-3.414-2.53-2.42a2.645 2.645 0 01-.78-2.379l.04-.185.053-.183a2.681 2.681 0 011.984-1.772l.187-.033 3.519-.502 1.57-3.122a2.689 2.689 0 012.029-1.447l.187-.02.19-.006zm0 2.6a.107.107 0 00-.066.021l-.018.022-2.179 4.335-4.863.693c-.038.005-.064.027-.072.05a.038.038 0 00.004.032l.012.017 3.535 3.38-.835 4.78c-.003.016.004.036.027.051.02.015.047.021.073.018l.038-.011 4.344-2.242 4.346 2.243a.106.106 0 00.049.011.102.102 0 00.061-.019.064.064 0 00.027-.034v-.016l-.836-4.781 3.535-3.38c.017-.017.021-.033.016-.048a.074.074 0 00-.038-.041l-.032-.01-4.865-.693-2.177-4.333c-.013-.025-.045-.045-.086-.045zM23.7 17.299L19 17.3l-.147.006a1.7 1.7 0 00-1.505 2.095c1.413 5.825 4.101 9.944 8.076 12.435-1.063-3.634-1.652-7.644-1.718-11.808l-.006-.782v-1.947zm36.912.001l-4.312-.001v1.947c0 4.324-.563 8.499-1.635 12.279 3.713-2.516 6.243-6.535 7.6-12.124a1.7 1.7 0 00-1.506-2.095l-.147-.006z" fill="currentColor" fill-rule="evenodd"/></svg>