<svg xmlns="http://www.w3.org/2000/svg" viewBox="0 0 24 24"><path d="M12 0c6.627 0 12 5.373 12 12s-5.373 12-12 12S0 18.627 0 12 5.373 0 12 0zm0 2C6.477 2 2 6.477 2 12s4.477 10 10 10 10-4.477 10-10S17.523 2 12 2zM8.644 7.9c.545 0 1.03.08 1.456.242.426.162.774.367 1.045.618.268.248.472.514.61.797.142.287.213.547.213.783 0 .27-.094.508-.278.7a.906.906 0 01-.673.291.861.861 0 01-.424-.112.978.978 0 01-.34-.32l-.212-.35-.14-.212a3.444 3.444 0 00-.123-.167 1.398 1.398 0 00-.473-.373c-.197-.1-.456-.151-.778-.151-.333 0-.627.062-.884.185a1.829 1.829 0 00-.659.538 2.573 2.573 0 00-.429.886 4.381 4.381 0 00-.153 1.199c0 .95.196 1.672.582 2.169.378.485.9.725 1.586.725.342 0 .661-.048.96-.146.152-.05.305-.11.46-.181l.232-.114.135-.076v-1.044H9.34l-.175-.006c-.244-.018-.44-.074-.591-.171-.213-.137-.32-.369-.32-.67 0-.245.084-.456.25-.62a.82.82 0 01.388-.213l.12-.022.144-.01 1.787.001.163.004c.166.009.312.031.441.067.201.056.365.183.485.372.076.119.126.268.152.45l.015.142.007.182v1.633l-.004.16c-.008.162-.03.3-.063.415a1.04 1.04 0 01-.267.438 2.225 2.225 0 01-.44.333c-.483.287-.95.496-1.4.629-.452.133-.943.199-1.473.199-.621 0-1.19-.105-1.704-.316a3.61 3.61 0 01-1.328-.927 4.14 4.14 0 01-.838-1.464A5.86 5.86 0 014.4 12.5c0-.683.093-1.31.28-1.88a4 4 0 01.837-1.472 3.66 3.66 0 011.349-.93C7.39 8.007 7.984 7.9 8.644 7.9zm6.002 0h3.623l.157.009c.221.025.4.104.53.24a.882.882 0 01.237.632.89.89 0 01-.237.639.794.794 0 01-.422.222l-.136.02-.134.006h-2.817v1.789h2.332l.145.008a.82.82 0 01.515.234c.154.16.232.373.232.627 0 .255-.08.468-.237.627a.781.781 0 01-.39.207l-.124.021-.152.009h-2.321l-.001 2.642-.006.18c-.023.318-.107.569-.256.75a.883.883 0 01-.708.338.885.885 0 01-.714-.341 1.208 1.208 0 01-.239-.595l-.016-.153-.007-.187v-6.65l.007-.188c.014-.193.049-.36.107-.501a.865.865 0 01.404-.453c.096-.05.205-.086.328-.107l.129-.017.171-.008z" fill="currentColor" fill-rule="evenodd"/></svg>