<svg xmlns="http://www.w3.org/2000/svg" viewBox="0 0 24 24"><path fill="currentColor" fill-rule="evenodd" d="M23.366 12.523a1 1 0 00.059-.88l-.059-.12-2.9-5.023a1 1 0 00-.748-.493L19.6 6h-4.923l-2.612-4.502a1 1 0 00-.747-.491L11.2 1H5.4a1 1 0 00-.8.4l-.065.098-2.9 5a1 1 0 00-.06.884l.06.12 2.61 4.5-2.611 4.52a1 1 0 00-.059.882l.059.119 2.9 5.023a1 1 0 00.748.493l.118.007h5.8a1 1 0 00.801-.401l.065-.1 2.599-4.498 4.935-.001a1 1 0 00.801-.401l.065-.1 2.9-5.022zm-10.577 4.772l-2.166 3.751H5.978l-2.322-4.023L5.978 13h4.331l2.48 4.295zm.005-10.552L10.336 11 5.977 11l-2.32-4 2.32-4h4.647l2.17 3.743zM7.88 8.48l-.045-.099-.996-1.833a.8.8 0 00-1.451.665l.045.099.996 1.833A.8.8 0 007.88 8.48zm2.42 10.496a.8.8 0 00-.7-.794l-.1-.006H7.581a.8.8 0 00-.1 1.594l.1.006H9.5a.8.8 0 00.8-.8zm11.045-6.954l-2.322 4.023h-4.331l-2.336-4.044L14.677 8 19.023 8l2.322 4.023zM18.4 13.977a.8.8 0 00-.7-.794l-.1-.006h-2.019a.8.8 0 00-.1 1.594l.1.006H17.6a.8.8 0 00.8-.8z"/></svg>