<svg xmlns="http://www.w3.org/2000/svg" viewBox="0 0 24 24"><path fill="currentColor" fill-rule="evenodd" d="M17.1 0l1.059 1.281C21.474 5.34 24 9.385 24 11.814c0 3.826-2.96 6.957-6.667 7.085l-.237.005-.074-.002-.132.292c-1.304 2.72-3.936 4.577-6.945 4.786l-.293.015-.277.005C4.757 24 1 20.117 1 15.394c0-2.91 3.118-7.965 7.041-12.76l.553-.668.786-.938.78.942c.597.723 1.22 1.508 1.836 2.32l.46.614.446.61.205-.308a51.044 51.044 0 012.32-3.177l.48-.597.408-.494L17.1 0zM9.37 4.247l-.504.634c-3.07 3.907-5.548 7.986-5.801 10.167l-.016.182-.005.164c0 3.6 2.854 6.551 6.332 6.551 2.641 0 4.979-1.695 5.91-4.197l.086-.245.258-.781a6.84 6.84 0 00.129-1.328c0-1.35-1.068-3.605-2.72-6.177l-.022.036-.903-1.311a66.085 66.085 0 00-2.1-2.876l-.54-.689-.104-.13zm3.61 10.953a.8.8 0 01.8.8c0 2.072-.926 3.47-2.432 4.223a5.422 5.422 0 01-2.174.574l-.175.003a.8.8 0 01-.096-1.594l.164-.007c.098-.004.249-.018.435-.05.39-.064.777-.18 1.13-.357.981-.49 1.548-1.347 1.548-2.792a.8.8 0 01.8-.8zm4.113-11.977l-.392.503a45.29 45.29 0 00-2.547 3.628c2.147 3.194 3.545 6.084 3.545 8.04 0 .487-.04.964-.115 1.429 2.45-.253 4.374-2.397 4.374-5.01 0-1.548-1.918-4.78-4.43-8.034l-.435-.556z"/></svg>