<svg xmlns="http://www.w3.org/2000/svg" viewBox="0 0 24 24"><path fill="currentColor" fill-rule="evenodd" d="M19.517 1a3.402 3.402 0 013.395 3.229l.005.188-.002.098-.516 15.2a3.4 3.4 0 01-3.21 3.28l-.188.005H5.027a3.4 3.4 0 01-3.386-3.091l-.012-.188-.54-15.2a3.401 3.401 0 013.099-3.507l.187-.012L19.517 1zm0 2H4.437A1.4 1.4 0 003.09 4.316l-.001.135.54 15.2a1.4 1.4 0 001.268 1.344l.131.006h13.974c.71 0 1.3-.53 1.388-1.221l.011-.131.517-15.248a1.4 1.4 0 00-1.265-1.394L19.517 3zM5.698 6.054c4.175-1.424 8.389-1.424 12.607-.002a1 1 0 01.68.98l-.011.119-.921 6.029a1 1 0 01-1.352.78c-3.16-1.235-6.258-1.235-9.345-.002a1 1 0 01-1.332-.656l-.026-.115-.95-5.935-.026-.214a1 1 0 01.676-.984zM16.38 7.563c-2.93-.768-5.839-.77-8.743-.007l-.493.136.639 3.994.362-.108a14.098 14.098 0 013.548-.54l1.32-2.393a.8.8 0 011.447.673l-.046.099-.935 1.696c.637.069 1.276.181 1.915.338l.48.125.383.113.61-3.992-.487-.134z"/></svg>