<svg xmlns="http://www.w3.org/2000/svg" viewBox="0 0 24 24"><path d="M12 0c6.627 0 12 5.373 12 12s-5.373 12-12 12S0 18.627 0 12 5.373 0 12 0zm0 2a9.955 9.955 0 00-5.943 1.957l1.792 1.912a.8.8 0 01-1.08 1.175l-.087-.08L4.85 5.008A9.967 9.967 0 002 12c0 5.523 4.477 10 10 10a9.96 9.96 0 006.461-2.367l-1.6-1.717C15.69 19.173 13.975 19.91 12 19.91c-3.685 0-6.5-2.642-6.5-6.366 0-2.335 1.68-5.21 4.98-8.742a2.42 2.42 0 00.21-.366l.18-.366.215-.473c.35-.793 1.476-.795 1.828-.003l.164.359c.155.331.281.577.362.716l.036.06.045.064c3.299 3.494 4.98 6.374 4.98 8.75 0 1.13-.25 2.153-.7 3.033l1.796 1.929A9.96 9.96 0 0022 12c0-5.523-4.477-10-10-10zm.004 4.095l-.062.071C8.961 9.358 7.5 11.856 7.5 13.543c0 2.59 1.893 4.366 4.5 4.366 2.636 0 4.5-1.733 4.5-4.366 0-1.671-1.361-4.06-4.142-7.065l-.292-.313-.062-.07zm2.42 8.697a.8.8 0 01.129 1.124c-.938 1.179-2.208 1.573-3.649 1.133a.8.8 0 01.468-1.53c.812.248 1.4.065 1.928-.6a.8.8 0 011.124-.127zM14.8 12.8a.8.8 0 110 1.6.8.8 0 010-1.6zm-3.343-3.517a.8.8 0 01.129 1.124c-.866 1.09-1.306 1.949-1.355 2.527l-.005.112a.8.8 0 01-1.6.01c-.006-1.028.577-2.222 1.707-3.645a.8.8 0 011.124-.128z" fill="currentColor" fill-rule="evenodd"/></svg>