<svg xmlns="http://www.w3.org/2000/svg" viewBox="0 0 24 24"><path fill="currentColor" fill-rule="evenodd" d="M4 19a1 1 0 110 2 1 1 0 010-2zm8 0a1 1 0 110 2 1 1 0 010-2zm8 0a1 1 0 110 2 1 1 0 010-2zM8 15.5a1 1 0 110 2 1 1 0 010-2zm8 0a1 1 0 110 2 1 1 0 010-2zM4 12a1 1 0 110 2 1 1 0 010-2zm8 0a1 1 0 110 2 1 1 0 010-2zm8 0a1 1 0 110 2 1 1 0 010-2zm-4.777-5.473l.191.162a3.702 3.702 0 004.377.4l.177-.114 1.466-1.006a1 1 0 011.23 1.571l-.098.078L21.1 8.624a5.702 5.702 0 01-6.816-.272l-.198-.169a3.139 3.139 0 00-4.02-.126l-.152.126a5.702 5.702 0 01-6.795.583L2.9 8.624 1.434 7.618a1 1 0 011.024-1.714l.108.065 1.466 1.006a3.702 3.702 0 004.391-.15l.163-.136a5.139 5.139 0 016.637-.162zM21.976 2a1 1 0 01.117 1.993L21.976 4H2a1 1 0 01-.117-1.993L2 2h19.976z"/></svg>