<svg xmlns="http://www.w3.org/2000/svg" viewBox="0 0 24 24"><path fill="currentColor" fill-rule="evenodd" d="M16.002 1.13a1 1 0 01.87-.057l.118.058 5.5 3.125a1 1 0 01.5.75l.006.119v6.25a1 1 0 01-.406.805l-.1.064-5.5 3.125a1 1 0 01-.87.057l-.118-.057-1.006-.571v4.577a1 1 0 01-.406.805l-.1.064-5.5 3.125a1 1 0 01-.87.057l-.118-.057-5.496-3.125a1 1 0 01-.499-.75L2 19.375v-6.25a1 1 0 01.406-.805l.1-.064L8.002 9.13a1 1 0 01.87-.058l.118.058L10 9.703 10 5.125a1 1 0 01.406-.805l.1-.064 5.496-3.125zM3.998 14.447l.001 4.346 3.699 2.104v-4.197l-3.7-2.253zm8.997.002l-3.697 2.251v4.194l3.698-2.1-.001-4.345zM8.496 11.15l-3.535 2.01 3.537 2.153 3.535-2.152-3.537-2.011zm3.502-4.704l.001 4.346 3.699 2.104V8.699l-3.7-2.253zm8.997.002l-3.697 2.251v4.194l3.698-2.1-.001-4.345zM5 1a1 1 0 011 1l-.001 3.36 1.315-1.234c.361-.339.924-.36 1.31-.065l.093.08a.923.923 0 01.069 1.257l-.084.088L4.961 9 1.29 5.48a.924.924 0 010-1.346c.357-.343.92-.37 1.31-.08l.093.08 1.305 1.251L4 2a1 1 0 011-1zm11.496 2.15l-3.535 2.01 3.537 2.153 3.535-2.152-3.537-2.011z"/></svg>