<svg xmlns="http://www.w3.org/2000/svg" viewBox="0 0 24 24"><path d="M22.126 0c.517 0 .937.42.937.938 0 1.29.128 1.963.308 2.611l.256.877c.065.225.13.472.195.749a7.006 7.006 0 01-.752 5.056 6.919 6.919 0 01-2.824 2.725.368.368 0 00-.189.238l-.008.065-.004.138c-.082 1.304-.838 3.418-1.924 4.655a.976.976 0 01-.093.11l-.145.142a6.823 6.823 0 01-4.503 1.907l-.227.004-.086.008a.383.383 0 00-.258.19 6.862 6.862 0 01-4.423 3.393l-.28.061-.333.058a6.925 6.925 0 01-.673.067L6.763 24h-4.7a.937.937 0 01-.938-.937c0-1.06-.205-1.85-.438-2.58l-.142-.431c-.157-.473-.32-.961-.422-1.487-.708-3.652 1.717-7.22 5.405-7.953.49-.097.99-.141 1.485-.13.145 0 .273-.081.342-.212a7.002 7.002 0 013.009-2.968.364.364 0 00.198-.322 7.045 7.045 0 01.927-3.495A6.881 6.881 0 0115.45.291c.756-.232 2.015-.28 3.493-.289L22.126 0zm-.914 1.875l-2.261.002-.715.008c-.892.018-1.805.066-2.236.198a5.014 5.014 0 00-2.883 2.331 5.175 5.175 0 00-.671 2.266l-.009.298a2.224 2.224 0 01-1.076 1.913l-.147.082a5.142 5.142 0 00-2.052 1.91l-.148.262a2.249 2.249 0 01-1.87 1.208l-.17.003a5.017 5.017 0 00-1.08.095c-2.68.533-4.443 3.115-3.93 5.758.059.303.15.61.254.928l.274.835c.168.53.328 1.111.422 1.8l.042.353h3.807c.243 0 .488-.018.73-.054l.249-.043a4.993 4.993 0 003.29-2.286l.13-.227a2.26 2.26 0 011.825-1.17l.165-.005.166-.003a4.953 4.953 0 003.19-1.315l.186-.179a.946.946 0 01.098-.086c.725-.867 1.3-2.445 1.396-3.343a.635.635 0 01-.015-.15 2.225 2.225 0 011.064-1.89l.145-.082a5.047 5.047 0 002.06-1.99 5.136 5.136 0 00.552-3.706 12.58 12.58 0 00-.142-.56l-.253-.862-.102-.374a9.628 9.628 0 01-.285-1.925zM8.624 14.653a3.058 3.058 0 011.311 1.968c.316 1.639-.754 3.246-2.407 3.67l-.18.041-.218.036a3.233 3.233 0 01-2.253-.521 3.058 3.058 0 01-1.312-1.968c-.316-1.639.754-3.246 2.405-3.67l.179-.04.218-.037a3.25 3.25 0 012.257.52zm-1.815 1.425c-.09 0-.182.009-.274.027-.69.138-1.153.766-1.03 1.4.054.285.222.535.473.703.243.164.536.236.836.209l.15-.022.128-.032c.62-.185 1.019-.774.904-1.368a1.096 1.096 0 00-.474-.703 1.272 1.272 0 00-.713-.214zm6.802-5.863a3.026 3.026 0 012.056.884c1.173 1.173 1.173 3.095.034 4.373l-.136.144-.168.157a3.319 3.319 0 01-1.847.81l-.227.015-.107.002c-.825 0-1.59-.313-2.164-.886-1.218-1.219-1.172-3.244.1-4.516a3.33 3.33 0 012.035-.97l.209-.014h.215zm-.11 1.973h-.04c-.338.011-.662.156-.913.407-.502.502-.547 1.275-.1 1.722.21.208.497.318.81.307.29-.01.569-.117.8-.305l.113-.101.094-.104c.412-.5.423-1.2.005-1.618-.2-.2-.471-.308-.77-.309zm5.515-8.183c1.486.858 1.964 2.82 1.069 4.37a3.31 3.31 0 01-1.906 1.527c-.3.09-.607.137-.912.137a2.99 2.99 0 01-1.502-.403c-1.486-.859-1.964-2.82-1.068-4.371a3.318 3.318 0 011.708-1.459l.197-.067.207-.055a3.011 3.011 0 012.207.321zm-1.505 1.573c-.11 0-.224.017-.335.051-.32.097-.593.318-.769.623-.352.61-.196 1.36.346 1.673.253.146.555.177.853.087.32-.097.592-.319.768-.624.352-.609.197-1.36-.346-1.673a1.03 1.03 0 00-.517-.137z" fill="currentColor" fill-rule="evenodd"/></svg>