<svg xmlns="http://www.w3.org/2000/svg" viewBox="0 0 24 24"><path fill="currentColor" fill-rule="evenodd" d="M7.497 9.878c.84 0 1.582.114 2.228.341.647.227 1.171.513 1.574.858.402.345.706.71.91 1.096.204.385.306.727.306 1.027 0 .322-.118.596-.353.823-.235.228-.517.341-.846.341a1.192 1.192 0 01-.944-.492 10.198 10.198 0 00-.791-1.121 2.554 2.554 0 00-.872-.638c-.366-.173-.832-.26-1.399-.26-.584 0-1.105.103-1.565.307-.459.204-.851.5-1.177.889-.326.388-.576.864-.749 1.427a6.363 6.363 0 00-.26 1.872c0 1.484.337 2.626 1.009 3.425.671.8 1.608 1.199 2.81 1.199.584 0 1.133-.078 1.646-.233a7.99 7.99 0 001.245-.5l.315-.164v-2.053H8.628l-.194-.005c-.376-.017-.666-.088-.873-.21-.24-.145-.361-.39-.361-.734 0-.282.1-.515.302-.699.172-.158.398-.248.676-.27l.144-.006h2.866l.205.004c.264.01.493.04.688.09.244.064.44.205.591.424.129.187.203.455.22.802l.006.181v2.424l-.004.186c-.01.236-.04.432-.09.586a1.224 1.224 0 01-.344.522 3.243 3.243 0 01-.643.449c-.754.414-1.48.716-2.177.905a8.659 8.659 0 01-2.279.285c-.958 0-1.831-.15-2.62-.448a5.5 5.5 0 01-2.015-1.303 5.763 5.763 0 01-1.28-2.07C1.15 18.324 1 17.418 1 16.417c0-.983.145-1.883.434-2.7.289-.817.714-1.51 1.275-2.079a5.589 5.589 0 012.05-1.307c.805-.302 1.718-.453 2.738-.453zM18 10.404a1 1 0 01.993.883l.007.117v7.216l1.364-1.335a1 1 0 011.321-.069l.093.084a1 1 0 01.07 1.321l-.084.094-3.771 3.692-3.7-3.7a1 1 0 011.32-1.497l.094.083L17 18.585v-7.181a1 1 0 011-1zm-7.463-9.256c.687 0 1.285.148 1.79.448.507.302.893.733 1.152 1.287.254.541.38 1.171.38 1.887 0 .528-.069 1.01-.207 1.448-.14.445-.351.834-.635 1.164a2.82 2.82 0 01-1.055.767c-.412.174-.879.26-1.4.26-.518 0-.987-.088-1.405-.267A2.854 2.854 0 018.1 7.373 3.279 3.279 0 017.466 6.2a4.815 4.815 0 01-.208-1.439c0-.526.073-1.011.218-1.455.147-.451.363-.839.647-1.16a2.837 2.837 0 011.045-.744 3.52 3.52 0 011.37-.254zm11.523 0c.246 0 .465.085.64.252a.86.86 0 01.271.641c0 .12-.023.28-.067.485l-.038.163-1.073 4.338a7.936 7.936 0 01-.19.671 1.157 1.157 0 01-.33.483c-.176.155-.41.229-.69.229-.264 0-.492-.071-.67-.219a1.106 1.106 0 01-.34-.461l-.056-.163-.15-.504-.754-2.795-.764 2.798c-.04.144-.077.27-.11.376l-.06.188-.034.092a1.134 1.134 0 01-.34.466c-.178.15-.406.222-.672.222-.21 0-.394-.042-.548-.13a.991.991 0 01-.361-.363 1.897 1.897 0 01-.189-.465l-.112-.426-1.071-4.335a2.78 2.78 0 01-.106-.65c0-.247.09-.466.266-.637a.898.898 0 01.644-.256c.34 0 .603.126.744.386.078.145.145.332.202.56l.618 2.752.63-2.34c.043-.168.084-.313.124-.436l.038-.114.037-.1c.075-.19.197-.353.362-.487.185-.15.423-.221.704-.221.288 0 .529.075.71.235.157.138.27.295.336.47.03.082.066.192.107.332l.09.318.636 2.35.578-2.575c.022-.103.043-.195.064-.277l.03-.116.031-.1a1.04 1.04 0 01.264-.42c.15-.148.356-.217.6-.217zm-19.571 0a.92.92 0 01.696.29c.155.166.238.389.258.66l.005.14v4.389l2.361.001.137.008a.92.92 0 01.535.224.8.8 0 01.267.608.788.788 0 01-.268.61.934.934 0 01-.55.216l-.136.006H2.63l-.148-.006c-.28-.023-.506-.11-.667-.272-.161-.163-.247-.391-.268-.675L1.543 7.2V2.227l.006-.139c.021-.262.102-.48.249-.643a.898.898 0 01.691-.297zm8.045 1.637c-.246 0-.47.042-.676.125a1.43 1.43 0 00-.516.355 1.701 1.701 0 00-.349.612c-.09.259-.135.553-.135.884 0 .335.046.633.135.897.088.256.208.464.361.627.155.163.33.284.528.365.202.081.425.123.672.123.314 0 .6-.071.86-.214a1.49 1.49 0 00.607-.648c.157-.303.237-.685.237-1.15 0-.429-.074-.793-.22-1.096a1.453 1.453 0 00-.59-.654 1.796 1.796 0 00-.914-.226z"/></svg>