<svg xmlns="http://www.w3.org/2000/svg" viewBox="0 0 24 24"><path fill="currentColor" fill-rule="evenodd" d="M12 1c6.627 0 12 5.373 12 12 0 3.183-1.247 6.174-3.431 8.4a2 2 0 01-1.25.593L19.14 22H4.859a2 2 0 01-1.428-.6A11.965 11.965 0 010 13C0 6.373 5.373 1 12 1zm1.001 2.05L13 5.41a1 1 0 01-1.993.117L11 5.41V3.05a9.96 9.96 0 00-5.6 2.437l1.432 1.43A1 1 0 015.505 8.41l-.087-.078-1.382-1.381a9.949 9.949 0 00-1.987 5.052l2.353.008a1 1 0 01.11 1.994l-.117.006-2.345-.008a9.962 9.962 0 002.58 5.757l.23.24h14.28a9.967 9.967 0 002.81-6l-2.445.011a1 1 0 01-.126-1.992l.116-.008L21.951 12a10.005 10.005 0 00-8.673-8.918L13 3.049zm4.471 4.747a.8.8 0 01.151 1.041l-.065.087-3.005 3.5a3 3 0 11-1.174-1.09l2.965-3.452a.8.8 0 011.128-.086zM12 13a1 1 0 100 2 1 1 0 000-2z"/></svg>