<svg xmlns="http://www.w3.org/2000/svg" viewBox="0 0 24 24"><path fill="currentColor" fill-rule="evenodd" d="M12 19.5a1 1 0 01.993.883L13 20.5v2l-.007.117a1 1 0 01-1.986 0L11 22.5v-2l.007-.117A1 1 0 0112 19.5zm-4.91-.677a1 1 0 01.351 1.281l-.058.102-1.089 1.677a1 1 0 01-1.735-.987l.058-.102 1.089-1.677a1 1 0 011.383-.294zm9.82 0a1 1 0 011.315.2l.069.094 1.09 1.677.057.102a1 1 0 01-1.666 1.081l-.069-.094-1.09-1.677-.057-.102a1 1 0 01.352-1.281zM12 5.57c2.763 0 5.354.842 7.725 2.288a18.287 18.287 0 013.895 3.168c.506.55.506 1.396 0 1.947a18.285 18.285 0 01-3.895 3.167c-2.371 1.446-4.962 2.288-7.725 2.288-2.764 0-5.354-.842-7.725-2.288A18.287 18.287 0 01.38 12.973a1.437 1.437 0 010-1.947A18.285 18.285 0 014.275 7.86C6.645 6.413 9.236 5.571 12 5.571zM12 8a4 4 0 100 8 4 4 0 000-8zm-4.996.676l-.195.088c-.507.236-1.004.505-1.493.803a16.718 16.718 0 00-2.693 2.04l-.273.26-.132.132.132.134c.618.606 1.36 1.228 2.21 1.812l.371.247.385.241c.551.337 1.114.635 1.688.892A5.975 5.975 0 016 12c0-1.23.37-2.372 1.004-3.324zm9.993 0l.036.057c.612.94.967 2.062.967 3.267 0 1.229-.37 2.371-1.003 3.323a14.786 14.786 0 001.687-.89 16.718 16.718 0 002.693-2.04l.272-.26.132-.133-.131-.133a16.443 16.443 0 00-2.21-1.812l-.372-.247-.384-.241a15.084 15.084 0 00-1.687-.891zM12 10.62a1.38 1.38 0 110 2.76 1.38 1.38 0 010-2.76zM4.91 2.323a1 1 0 011.315.2l.069.094 1.09 1.677.057.102a1 1 0 01-1.666 1.081l-.069-.094-1.09-1.677-.057-.102a1 1 0 01.352-1.281zm14.18 0a1 1 0 01.351 1.281l-.058.102-1.089 1.677a1 1 0 01-1.735-.987l.058-.102 1.089-1.677a1 1 0 011.383-.294zM12 1a1 1 0 01.993.883L13 2v2a1 1 0 01-1.993.117L11 4V2a1 1 0 011-1z"/></svg>