<svg xmlns="http://www.w3.org/2000/svg" viewBox="0 0 24 24"><path fill="currentColor" fill-rule="evenodd" d="M12.371.072l10 3.999a1 1 0 01.629.928v6.002c0 6.942-5.585 12.039-10.823 12.983a1 1 0 01-.354 0C6.585 23.04 1 17.944 1 11.001V4.999a1 1 0 01.629-.928l10-4a1 1 0 01.742 0zM12 2.077l-9 3.6V11c0 5.764 4.674 10.108 9 10.981 4.326-.873 9-5.217 9-10.981V5.676l-9-3.599zM12 5.2a6.8 6.8 0 110 13.6 6.8 6.8 0 010-13.6zm0 1.6a5.2 5.2 0 100 10.4 5.2 5.2 0 000-10.4zM12 9a1 1 0 011 1v1h1a1 1 0 010 2h-1v1a1 1 0 01-2 0v-1h-1a1 1 0 010-2h1v-1a1 1 0 011-1z"/></svg>