<svg xmlns="http://www.w3.org/2000/svg" viewBox="0 0 80 80"><path d="M24.592 25.789c3.04-3.93 14.715-.444 22.382 6.917.209.2.414.403.616.609 2.163-.877 4.476-.766 6.891.377l.263.129c3.785 1.903 7.217 1.81 10.473-.256a1.3 1.3 0 011.392 2.195c-3.943 2.502-8.225 2.68-12.68.556l-.353-.173c-1.434-.72-2.79-.96-4.095-.693 2.395 2.982 4.182 6.392 5.35 9.921 1.23 3.711 1.65 7.14.818 8.29l-.077.095-.187.209-14.168 6.27c-.173.138-.38.23-.6.267l-28.045 12.41c-3.605 1.547-7.209-1.975-5.83-5.579l.073-.18L24.49 25.92l.101-.131zm-8.183 25.58L9.204 68.178c-.627 1.464.75 2.905 2.197 2.402l.132-.05 17.253-7.636c-2.375-1.035-4.723-2.626-7.043-4.764-2.375-2.19-4.157-4.441-5.334-6.76zm3.279-7.65l-1.846 4.309c.856 2.758 2.734 5.49 5.663 8.189 2.95 2.718 5.876 4.42 8.779 5.13l4.495-1.99c-4.18-1.626-7.694-3.84-10.534-6.645-2.787-2.753-4.974-5.752-6.557-8.992zm6.408-14.948l-5.003 11.672.11.285c1.473 3.686 3.76 7.062 6.87 10.134 3.122 3.085 7.178 5.405 12.186 6.954l11.919-5.274c-7.538-1.275-13.543-4.146-17.98-8.627-4.094-4.135-6.76-9.004-7.984-14.584l-.118-.56zm7.199-1.27c-1.971-.588-3.692-.797-4.907-.716.886 5.947 3.433 11.035 7.657 15.3 4.168 4.21 9.918 6.883 17.29 8.01-.18-1.161-.508-2.509-.971-3.906-1.142-3.446-2.923-6.767-5.32-9.61-1.039.763-2.054 1.886-3.059 3.382a1.3 1.3 0 11-2.158-1.45c1.083-1.611 2.234-2.893 3.443-3.835l-.096-.094c-3.52-3.38-7.828-5.87-11.88-7.08zm27.721 16.624c.46 1.487.99 1.882 1.969 1.615l.136-.04c2.374-.757 4.401-.029 5.734 2.063a1.3 1.3 0 11-2.193 1.397c-.66-1.037-1.414-1.35-2.557-1.04l-.195.057c-2.56.816-4.498-.442-5.377-3.282a1.3 1.3 0 012.483-.77zM69 39.5a1.5 1.5 0 110 3 1.5 1.5 0 010-3zm4-12a1.5 1.5 0 110 3 1.5 1.5 0 010-3zM60.958 7.905a1.3 1.3 0 01.817 1.647c-1.491 4.426-4.706 7.26-9.505 8.415l-.383.087c-3.87.846-5.526 3.68-5.052 9.005a1.3 1.3 0 11-2.59.231c-.57-6.412 1.724-10.474 6.803-11.71l.285-.066c4.138-.904 6.747-3.137 7.978-6.792a1.3 1.3 0 011.647-.817zm11.074 11.812a1.3 1.3 0 01-1.105 2.353c-2.588-1.215-4.186-.92-5.292.85l-.106.176c-1.75 3.037-4.515 4.294-8.013 3.656a1.3 1.3 0 11.466-2.558c2.338.426 3.976-.266 5.165-2.18l.13-.217c1.84-3.19 4.94-3.871 8.755-2.08zm-36.383-8.74a1.3 1.3 0 01.544 1.756c-.725 1.377-.63 2.03.251 2.535l.125.068c2.214 1.144 3.133 3.092 2.596 5.514a1.3 1.3 0 01-2.538-.562c.266-1.2-.047-1.956-1.074-2.546l-.178-.097c-2.386-1.233-2.868-3.494-1.482-6.124a1.3 1.3 0 011.756-.544zM46 6.5a1.5 1.5 0 110 3 1.5 1.5 0 010-3z" fill="currentColor" fill-rule="evenodd"/></svg>