<svg xmlns="http://www.w3.org/2000/svg" viewBox="0 0 24 24"><path d="M14.555 3.168a1 1 0 01.336 1.286l-.059.1L11.867 9h1.212l4.26-3.75a1 1 0 011.323 0l.088.09a1 1 0 010 1.322l-.09.088L16.106 9h3.817c1.146 0 2.068.918 2.04 2.035l-.01.147-.103 1.02c-.17 1.507-.362 2.29-.896 3.427-.789 1.679-2.095 3.047-4.026 4.035-.229.74-.93 1.267-1.746 1.33l-.165.006H8.992c-.883 0-1.664-.544-1.909-1.331-1.936-.988-3.246-2.358-4.036-4.04-.529-1.125-.722-1.902-.891-3.385l-.036-.329-.073-.734c-.111-1.133.758-2.097 1.883-2.176L4.078 9h5.386l3.704-5.555a1 1 0 011.387-.277zm5.406 7.817l-.002.012-.006.002L4.05 11l-.01-.003-.004-.012.04.41c.066.665.127 1.173.206 1.606L6.8 13a1 1 0 01.117 1.993L6.8 15H4.966l.012.022c.627 1.201 1.624 2.181 3.126 2.922l.372.176.08.049.105.08.043.04c.153.15.259.35.29.574l.01.137H15c0-.292.129-.574.356-.765l.047-.037.091-.061.05-.028.052-.025c1.68-.759 2.77-1.794 3.437-3.083L10 15a1 1 0 01-.117-1.993L10 13l9.717.001c.054-.3.1-.636.145-1.034l.032-.287.067-.695z" fill="currentColor" fill-rule="evenodd"/></svg>