<svg xmlns="http://www.w3.org/2000/svg" viewBox="0 0 24 24"><path d="M11.347 1.155c.25-.544.844-.762 1.326-.487.482.275.67.94.42 1.483-.404.878-.461 1.73-.174 2.633l.158.45c.38 1.164.287 2.325-.242 3.427.3.238.6.496.895.77 2.484 2.317 3.775 5.067 2.42 6.521l-.134.13-.038.031-.072.1c-.047.056-.1.108-.16.155l-.094.066-.103.057-13 6.258a.96.96 0 01-1.36-1.13l.036-.104L6.561 8.109c.06-.148.147-.274.253-.375l.083-.07.01-.006.029-.043.12-.142c.896-.96 2.434-.808 4.092.072.22-.5.246-.977.101-1.468l-.161-.465c-.494-1.497-.407-3.009.26-4.457zM7.231 11.423l-3.24 8.421 8.165-3.813c-.929-.372-1.912-1.03-2.831-1.886-.93-.866-1.66-1.813-2.094-2.722zM18.217 17c.529 0 .957.448.957 1s-.428 1-.957 1c-.528 0-.956-.448-.956-1s.428-1 .956-1zM9.136 9.797l-.083.006.002.081c.005.202.078.479.22.8.326.738.958 1.585 1.778 2.35.82.764 1.71 1.336 2.468 1.61.275.099.517.152.706.162l.107.001.082-.003v-.084c-.007-.201-.079-.478-.22-.8-.327-.737-.96-1.585-1.78-2.35-.819-.764-1.708-1.336-2.467-1.61a2.578 2.578 0 00-.706-.162l-.107-.001zm8.787.617c.428-.165.899.056 1.099.497l.041.106.04.114c.063.17.122.286.169.352l.032.04.014.013c0-.007.008-.013.028-.025l.041-.02.148-.067c1.035-.424 2.004-.02 2.668 1.074.275.452.168 1.06-.239 1.355-.376.274-.875.187-1.166-.184l-.069-.099-.059-.094c-.168-.253-.276-.3-.47-.224l-.216.096c-1.153.471-2.111-.23-2.591-1.687-.169-.51.069-1.07.53-1.247zm5.26-3.42a1.014 1.014 0 01-.383 1.368c-1.274.72-2.628.849-3.992.384l-.256-.095c-.78-.308-1.493-.104-2.3.733a.981.981 0 01-1.402.015 1.017 1.017 0 01-.015-1.424c1.273-1.32 2.732-1.78 4.231-1.275l.205.075c.832.329 1.6.306 2.37-.07l.193-.102a.984.984 0 011.35.39zM6.74 3c.528 0 .957.448.957 1s-.429 1-.957 1-.956-.448-.956-1 .428-1 .956-1zm9.565-1c.529 0 .957.448.957 1s-.428 1-.957 1c-.528 0-.956-.448-.956-1s.428-1 .956-1z" fill="currentColor" fill-rule="evenodd"/></svg>