<svg xmlns="http://www.w3.org/2000/svg" viewBox="0 0 24 24"><path fill="currentColor" fill-rule="evenodd" d="M12 1c7.375 0 12 3.548 12 10.661C24 18.728 19.497 22 12 22c-1.704 0-3.258-.168-4.647-.52l-.082-.023-3.888 1.502a1.455 1.455 0 01-.601.096l-.152-.017-.15-.032c-.637-.172-1.069-.746-1.066-1.46l.007-.156.034-.168.742-2.741-.213-.259C.806 16.727.142 14.805.02 12.463l-.015-.418L0 11.661C0 4.548 4.625 1 12 1zm0 2C5.631 3 2 5.786 2 11.661c0 2.483.637 4.34 1.841 5.661l.176.185.405.41-.759 2.79 3.507-1.353.323.092C8.79 19.818 10.301 20 12 20c6.505 0 10-2.54 10-8.339C22 5.786 18.369 3 12 3zm-4.5 7a1.25 1.25 0 110 2.5 1.25 1.25 0 010-2.5zm4.5 0a1.25 1.25 0 110 2.5 1.25 1.25 0 010-2.5zm4.5 0a1.25 1.25 0 110 2.5 1.25 1.25 0 010-2.5z"/></svg>