<svg width="20" height="20" viewBox="0 0 20 20" fill="none" xmlns="http://www.w3.org/2000/svg">
    <path d="M13.234 19.51h-.092a.785.785 0 0 1-.45-.17c-3.084-2.444-4.917-4.512-5.602-6.324a5.18 5.18 0 0 1-.12-.362h-.174a4.754 4.754 0 0 0-3.39 1.436 4.956 4.956 0 0 0-1.407 3.462.825.825 0 0 1-.234.577.791.791 0 0 1-1.131 0 .825.825 0 0 1-.234-.577c-.001-1.697.645-3.328 1.802-4.547a6.336 6.336 0 0 1 4.395-1.984h.223c.033-.29.098-.577.196-.853a4.757 4.757 0 0 1-2.748-1.336 4.933 4.933 0 0 1-1.407-2.755 4.988 4.988 0 0 1 .5-3.065A4.841 4.841 0 0 1 5.564.871 4.707 4.707 0 0 1 8.588.514c1.02.22 1.94.771 2.625 1.572a4.977 4.977 0 0 1 .415 5.878 4.504 4.504 0 0 1 1.56.915 4.205 4.205 0 0 1 2.825-1.124c.577.001 1.145.146 1.656.421.51.276.947.674 1.273 1.16a3.995 3.995 0 0 1 .342 3.678c-.685 1.813-2.518 3.882-5.603 6.325a.785.785 0 0 1-.447.171zM10.362 9.388c-.316 0-.627.08-.906.23-.28.15-.519.368-.697.634a2.348 2.348 0 0 0-.176 2.174c.536 1.416 2.085 3.177 4.604 5.233 2.521-2.056 4.072-3.817 4.606-5.233a2.36 2.36 0 0 0-.175-2.174 1.959 1.959 0 0 0-.698-.635c-.28-.15-.591-.229-.907-.23a2.872 2.872 0 0 0-1.24.33c-.384.203-.72.49-.982.84a.794.794 0 0 1-.503.27l-.107.006a.786.786 0 0 1-.597-.275 2.936 2.936 0 0 0-.982-.84 2.873 2.873 0 0 0-1.24-.33zM7.595 2.04c-.444 0-.884.096-1.29.28a3.201 3.201 0 0 0-1.07.79c-.3.336-.527.732-.668 1.163a3.33 3.33 0 0 0 .243 2.625c.217.397.512.743.867 1.016a3.134 3.134 0 0 0 2.515.6 3.51 3.51 0 0 1 1.423-.678 3.271 3.271 0 0 0 1.06-1.652 3.33 3.33 0 0 0-.068-1.973 3.26 3.26 0 0 0-1.169-1.573 3.153 3.153 0 0 0-1.843-.598z" fill="#9FA5A5"/>
</svg>
