<svg xmlns="http://www.w3.org/2000/svg" width="18" height="18" viewBox="0 0 18 18">
    <g fill="none" fill-rule="evenodd">
        <g fill="currentColor">
            <g>
                <g>
                    <path d="M9 0c4.97 0 9 4.03 9 9s-4.03 9-9 9-9-4.03-9-9 4.03-9 9-9zm0 1.5C4.858 1.5 1.5 4.858 1.5 9c0 4.142 3.358 7.5 7.5 7.5 4.142 0 7.5-3.358 7.5-7.5 0-4.142-3.358-7.5-7.5-7.5zm-.75 2.25c.385 0 .702.29.745.663L9 4.5V9h3c.414 0 .75.336.75.75 0 .385-.29.702-.663.745L12 10.5H8.25c-.385 0-.702-.29-.745-.663L7.5 9.75V4.5c0-.414.336-.75.75-.75z" transform="translate(-818 -540) translate(812 534) translate(6 6)"/>
                </g>
            </g>
        </g>
    </g>
</svg>
