<svg width="20" height="20" viewBox="0 0 20 20" fill="none" xmlns="http://www.w3.org/2000/svg">
    <path fill-rule="evenodd" clip-rule="evenodd" d="M18.055 12.229a.833.833 0 0 1-.55-1.042 7.411 7.411 0 0 0 .28-3.026 2.917 2.917 0 0 1-2.72-4.936 7.373 7.373 0 0 0-3-1.454.833.833 0 1 1 .37-1.625 9.06 9.06 0 0 1 4.262 2.294 2.917 2.917 0 0 1 2.623 4.763 9.08 9.08 0 0 1-.223 4.475.833.833 0 0 1-1.042.55zm-16.736-.552a9.113 9.113 0 0 1-.288-4.122 2.917 2.917 0 0 1 2.62-5.048A9.053 9.053 0 0 1 7.98.147a.833.833 0 1 1 .37 1.624A7.395 7.395 0 0 0 5.118 3.42a2.917 2.917 0 0 1-2.493 4.814 7.447 7.447 0 0 0 .288 2.955.833.833 0 0 1-1.594.49zm15.764-5.096a1.25 1.25 0 1 0 0-2.5 1.25 1.25 0 0 0 0 2.5zm-14.166 0a1.25 1.25 0 1 0 0-2.5 1.25 1.25 0 0 0 0 2.5zM10 19.914a2.918 2.918 0 0 1-2.866-2.37 9.093 9.093 0 0 1-3.578-2.375.833.833 0 0 1 1.221-1.134 7.453 7.453 0 0 0 2.55 1.795 2.918 2.918 0 0 1 5.403.14c1.101-.4 2.097-1.06 2.91-1.935a.833.833 0 0 1 1.22 1.134 9.093 9.093 0 0 1-4.027 2.524A2.917 2.917 0 0 1 10 19.914zm0-1.667a1.25 1.25 0 1 0 0-2.5 1.25 1.25 0 0 0 0 2.5z" fill="#9FA5A5"/>
</svg>
