<svg xmlns="http://www.w3.org/2000/svg" viewBox="0 0 80 80"><path d="M70.056 11.647c1.996.08 3.028.238 4.171.82 2.52 1.28 3.523 3.948 3.713 7.904l.017.406.013.443c.009.448.01.922.002 1.514l-.033 2.273.005.608.065 3.815.031 3.579c.008 1.433.01 3.01.01 4.868l-.036 15.467c-.01 3.87-3.18 6.458-7.123 6.468l-7.257-.183-1.842-.041a336.332 336.332 0 00-4.8-.068l-4.175-.01-3.257.014c-3.329.022-6.974.074-11.812.162l-9.665.187c-4.034.079-5.555.266-7.415 1.101-.855.384-1.69.903-2.547 1.592l-.285.233-.372.313c-.436.373-.89.787-1.507 1.367l-1.484 1.41-.587.55c-1.78 1.656-2.845 2.506-4.267 3.36-1.454.872-2.845.669-3.736-.517-.566-.755-.878-1.81-1.073-3.212a21.818 21.818 0 01-.11-.96l-.137-1.687-.02-.189a260.482 260.482 0 01-.94-8.626l-.117-1.29c-.433-4.872-.765-9.812-1.093-15.978l-.248-4.816-.248-3.512-.03-.49c-.114-2.068-.09-3.68.126-5.205.597-4.179 3.373-6.456 7.664-7.315 19.032-3.81 39.348-5.206 60.4-4.355zm-59.928 6.708c-3.386.678-5.325 2.27-5.759 5.301-.176 1.237-.208 2.584-.127 4.297l.072 1.244.21 2.9.038.645.18 3.58.188 3.446c.283 4.984.578 9.188.947 13.339.266 3.001.563 5.868.9 8.643l.16 1.3.041.442c.005.067.062.82.082 1.065.038.445.078.825.127 1.182.143 1.026.36 1.761.616 2.102l.054.067c.076.078.145.058.425-.107l.456-.279c1.156-.73 2.144-1.553 3.825-3.131l1.968-1.865.526-.486c.573-.525 1.03-.917 1.559-1.343 1.013-.816 2.023-1.443 3.069-1.912l.445-.192c1.832-.757 3.457-.991 6.675-1.09l13.552-.263 3.388-.053c4.477-.064 7.932-.085 11.664-.074l2.535.015 1.607.02c1.099.016 2.262.038 3.55.068l7.602.194c2.809.07 4.905-1.59 4.91-4.072l.036-16.724-.008-3.415c-.007-1.564-.02-2.951-.04-4.34l-.062-3.617.008-.965.027-1.756.002-.858c-.003-.349-.011-.664-.025-.987l-.008-.19c-.152-3.175-.879-5.105-2.403-5.88-.736-.374-1.522-.494-3.18-.561-20.869-.844-40.996.54-59.832 4.31zM20.584 47.97c.74 0 1.287.56 1.287 1.324s-.548 1.323-1.287 1.323c-.743 0-1.287-.563-1.287-1.323s.544-1.324 1.287-1.324zm45.082 0c.246 0 .498.054.7.158l.117.069-.168.45a1.243 1.243 0 00-.652-.201c-.322 0-.447.131-.447.292 0 .472 1.367.146 1.367 1.086 0 .428-.325.793-.997.793a1.69 1.69 0 01-.859-.224l-.099-.072.185-.446c.198.157.494.267.776.267.322 0 .453-.117.453-.274 0-.48-1.367-.15-1.367-1.1 0-.436.323-.798.991-.798zm-23.397.044l.88 1.59.866-1.59h.448l.006 2.56h-.51l-.004-1.536-.692 1.265h-.245l-.689-1.232v1.502h-.51v-2.559h.45zm-4.597 0l1.052 2.56h-.572l-.208-.55h-1.092l-.208.55h-.558l1.048-2.56h.538zm24.764 0v.475H61.2v.556h1.092v.461H61.2v.592h1.28v.476h-1.82v-2.56h1.776zm-45.26 0v.475h-1.233v.677h1.089v.475h-1.09v.932H15.4v-2.559h1.777zm8.022 0c.628 0 1.02.355 1.02.93 0 .34-.14.6-.386.754l-.097.053.528.823h-.585l-.454-.714h-.5v.714h-.544v-2.56h1.018zm7.978 0v.475h-1.233v.677h1.09v.475h-1.09v.932H31.4v-2.559h1.777zm15.244 0v2.56h-.544v-2.56h.544zm3.952 0v2.077h1.18v.482h-1.724v-2.559h.544zm4.88 0v2.56h-.545v-2.56h.544zm-36.668.461c-.42 0-.736.333-.736.819 0 .486.316.819.736.819s.736-.333.736-.819c0-.486-.316-.819-.736-.819zm16.816.12l-.373.98h.745l-.372-.98zm-12.233-.098h-.443v.892h.443c.333 0 .5-.168.5-.446 0-.282-.167-.446-.5-.446zm31.695-11.916c.575 0 1.142.09 1.702.269.466.149.886.34 1.258.572l.218.144-.783 1.821a6.715 6.715 0 00-1.357-.673c-.48-.175-.883-.262-1.209-.262-.257 0-.459.052-.607.156a.523.523 0 00-.221.455c0 .192.064.352.193.48.128.13.287.233.477.312l.219.087c.166.063.373.135.62.219.553.174 1.009.35 1.368.524.36.174.668.443.925.804.257.362.386.834.386 1.415 0 .582-.14 1.08-.42 1.491-.28.411-.664.721-1.152.929a4.112 4.112 0 01-1.629.312 5.403 5.403 0 01-1.968-.38 5.37 5.37 0 01-1.488-.859l-.21-.183.806-1.784c.401.392.876.711 1.425.961.548.25 1.034.374 1.458.374.31 0 .554-.062.732-.187.178-.125.267-.307.267-.549 0-.2-.066-.366-.198-.498a1.45 1.45 0 00-.5-.319l-.28-.102a13.111 13.111 0 00-.358-.115l-.208-.063a9.785 9.785 0 01-1.35-.505 2.43 2.43 0 01-.914-.774c-.254-.344-.38-.804-.38-1.378 0-.54.13-1.014.391-1.422a2.544 2.544 0 011.113-.941c.48-.22 1.038-.33 1.674-.33zm-38.347 0c.575 0 1.143.09 1.702.269.56.178 1.052.417 1.476.716l-.783 1.821a6.715 6.715 0 00-1.356-.673c-.48-.175-.884-.262-1.21-.262-.256 0-.459.052-.606.156a.523.523 0 00-.222.455c0 .192.065.352.193.48.129.13.288.233.477.312l.22.087c.166.063.373.135.62.219.552.174 1.008.35 1.368.524.359.174.667.443.925.804.256.362.385.834.385 1.415 0 .582-.14 1.08-.42 1.491-.28.411-.663.721-1.152.929a4.112 4.112 0 01-1.628.312 5.409 5.409 0 01-1.97-.38 5.282 5.282 0 01-1.696-1.042l.806-1.784c.4.392.876.711 1.424.961.548.25 1.035.374 1.459.374.31 0 .554-.062.731-.187.178-.125.267-.307.267-.549 0-.2-.066-.366-.198-.498a1.45 1.45 0 00-.5-.319l-.28-.102a13.125 13.125 0 00-.357-.115l-.208-.063a9.785 9.785 0 01-1.35-.505 2.43 2.43 0 01-.915-.774c-.253-.344-.38-.804-.38-1.378 0-.54.131-1.014.392-1.422a2.544 2.544 0 011.112-.941c.48-.22 1.039-.33 1.674-.33zm34.481.175v1.883h-2.383v6.86h-2.077v-6.86h-2.36v-1.883h6.82zm-18.75 0l3.338 8.743H35.37l-.545-1.547h-3.44l-.555 1.547h-2.134l3.416-8.743h2.134zm-5.023 0v1.883h-2.384v6.86h-2.076v-6.86h-2.361v-1.883h6.82zm12.924 0c1.051 0 1.867.268 2.446.804.579.537.869 1.292.869 2.264 0 .658-.122 1.225-.364 1.703a2.626 2.626 0 01-.887 1.011l-.168.105L45.7 45.5h-2.35l-1.158-2.42H40.65v2.42h-2.077v-8.743h3.575zm1.36-16.08c.409 0 .614.352.614 1.055 0 .58-.321 1.681-.962 3.3-.547 1.18-1.044 2.122-1.491 2.825a20.774 20.774 0 01-2.167 2.531c-.13.096-.32.215-.572.358a.726.726 0 00-.039.11l-.004.034v.064c0 .867.337 1.71 1.01 2.526.37.353.892.53 1.565.53.864 0 1.846-.603 2.945-1.808a8.144 8.144 0 001.11-1.702l.013-.013-.013-.228c0-.516.184-1.243.552-2.179l.105-.26v-.107l-.067-.009c-.12-.023-.4-.086-.84-.19-.443-.219-.69-.444-.739-.677l-.009-.087v-.086c0-.279.253-.535.76-.77l.159-.07h.104c.186.04.28.127.28.262 0 .063-.105.192-.313.388l-.095.088-.03.102v.054c.036.207.369.33.998.37.109 0 .255-.231.438-.691.71-1.295 1.219-1.942 1.528-1.942.186 0 .294.105.322.316-.069.196-.31.592-.724 1.187l-.363.721c-.023.05-.042.09-.054.12l-.021.058.018.031v.006h-.128c.061 0 .123.007.188.02l1.493-.342.875-.207c.443-.147 1.423-.22 2.94-.22.333.072.5.209.5.412 0 .196-.133.305-.396.326a9.727 9.727 0 00-.756-.06l-.218-.004h-.268c-.755 0-1.976.234-3.664.7l-.316.064c-.38.082-.59.149-.632.201l-.008.02c-.487.941-.73 1.753-.73 2.434 0 .867.237 1.578.712 2.135.544.413 1.197.62 1.96.62.998 0 1.986-.332 2.964-.995l.467-.437a22.132 22.132 0 001.353-1.376l.046-.024c.078-.88.26-1.82.552-2.823.135-.189.33-.652.585-1.39l.135-.239c.195-.355.45-.86.765-1.516.24-.457.712-1.092 1.42-1.906.229-.15.45-.24.663-.264l.127-.008h.049c.507 0 .76.387.76 1.161 0 .792-.131 1.49-.395 2.092-.183.93-1.061 2.31-2.636 4.136-.787.698-1.18 1.154-1.18 1.369l-.025.792c0 .04.008.107.022.19.073-.087.178-.273.319-.57.426-.678.935-1.017 1.528-1.017.771 0 1.298.53 1.58 1.592l.169.689c.12.472.202.73.247.773l.013.006a.848.848 0 00.235.076l.118.01h.072c.669 0 1.243-.48 1.726-1.429.098-.346.262-.744.498-1.2l.071-.239c.034-.028.064-.042.095-.063.06-.107.108-.205.174-.317.159-.117.31-.176.451-.176.19.086.286.195.286.326l-.05.132a10.61 10.61 0 01-.2.444c-.052.29-.25.78-.596 1.47-.016.1-.03.2-.03.287 0 .467.136.7.408.7.291 0 .624-.231.997-.695l.207-.23c.261-.295.592-.69.993-1.188a.913.913 0 01.376-.21l.08-.01h.024c.313 0 .47.233.47.697-.017.15-.025.269-.025.358 0 .28.126.553.376.826l.039-.027c.088-.072.316-.291.687-.66.945-.72 1.767-1.225 2.465-1.514.34-.235.818-.392 1.43-.471.28 0 .438.078.473.234l.008.071v.065c-.063.161-.192.254-.389.277l-.104.006c-.446 0-1.315.432-2.605 1.295l-.353.283c-.714.581-1.103.963-1.166 1.145l-.009.038v.059l.037.07c.115.2.468.71 1.059 1.53l.409.624c.62.96.93 1.514.93 1.66.26.452.39 1.082.39 1.888.016 0 .024.094.024.284 0 1.013-.465 1.931-1.394 2.755-.641.407-1.29.61-1.948.61-.97 0-1.938-.548-2.903-1.643-.256-.408-.4-.85-.432-1.325l-.006-.205v-.428c0-1.037.304-2.097.912-3.179.381-.819.883-1.614 1.504-2.385.207-.203.31-.345.31-.428l-.013-.049c-.05-.134-.234-.515-.552-1.138-.095.057-.26.231-.5.535-.625.766-1.217 1.15-1.777 1.15-.505 0-.865-.235-1.082-.703-.39.423-.736.639-1.032.639-.028.035-.29.064-.785.085-.653 0-1.086-.223-1.297-.669-.065-.2-.187-.738-.365-1.615-.19-.479-.393-.742-.61-.79l-.072-.007H56.5c-.317 0-.723.63-1.218 1.888l-.11.56c-.14.665-.247.997-.322.997-.02.046-.082.073-.187.082l-.112.004c-.36 0-.541-.393-.541-1.177a17.267 17.267 0 01-.138-1.891c-.38.378-.922.854-1.63 1.43-.331.226-.95.47-1.856.734l-.376.077c-.348.066-.612.099-.792.099-1.644-.064-2.709-.538-3.195-1.423a3.904 3.904 0 01-.248-.54c-.222.342-.47.663-.74.963l-.415.377c-.928.827-1.556 1.285-1.885 1.372-.3.132-.616.21-.948.237l-.252.01h-.414c-1.642 0-2.654-1.161-3.038-3.474l-.204.13a6.707 6.707 0 01-.113.069c-1.29.912-2.303 1.397-3.04 1.454l-.156.006c-.734.099-1.182-.195-1.344-.877-.159.075-.503.366-1.036.877-.024 0-.267.191-.73.573a3.264 3.264 0 01-1.017.358c-.61.076-1.026-.114-1.246-.57l-.05-.12a.77.77 0 01-.043-.487 2.24 2.24 0 01.242-.875 9.172 9.172 0 01-4.296 1.025c-.877-.01-1.832-.19-2.407-.853-.38.828-.98 1.616-1.835 1.928-.856.313-1.982-.024-2.3-.878-.151-.404-.11-.853-.214-1.27-.104-.418-.462-.843-.886-.767-.315.057-.516.363-.661.65a8.03 8.03 0 00-.72 2.078l-.05.237a.941.941 0 01-.14.326c-.118.162-.347.263-.523.168-.153-.083-.206-.274-.242-.445a12.593 12.593 0 01-.248-3.01c-.98.53-2.049.895-3.148 1.078-.166.026-.384.01-.521-.1-.06-.047-.111-.134-.106-.212.009-.088.107-.153.17-.202.457-.349 1.068-.396 1.613-.507a6.026 6.026 0 001.398-.47c.192-.092.386-.2.508-.373.13-.184.162-.416.197-.637a14.155 14.155 0 013.118-6.87c.294-.35.692-.717 1.14-.63.565.108.744.829.72 1.403-.108 2.44-1.701 4.546-3.374 6.325-.275.293-.56.588-.742.945-.163.318-.236.7-.133 1.038l.047.121.073-.176c.15-.355.35-.693.622-.961l.143-.128c.397-.323.952-.484 1.436-.318.444.153.766.55.954.98.187.43.263.898.37 1.355.04.167.085.337.19.471.264.336.788.303 1.168.092l.099-.06c.444-.303.718-.776.94-1.253.236-.512.422-1.058.747-1.523.361-.52.851-.905 1.387-1.232a9.265 9.265 0 011.59-.774c.409-.152.856-.276 1.277-.162.42.116.78.552.662.972-.076.269-.316.455-.552.604a5.528 5.528 0 01-3.048.835c-.216-.005-.453-.016-.622.118-.21.166-.215.501-.074.728.141.227.39.363.64.46.709.275 1.493.307 2.25.224a7.75 7.75 0 001.712-.385c.714-.247 1.355-.605 1.989-1.012.352-.225.703-.454 1.04-.701l.504-.37c.085-.06.172-.118.26-.172a2.577 2.577 0 011.063-.36l.189-.011.225-.005c.592.01 1.004.289 1.235.834l.022.308c.006.113.012.238.016.373l.005.212v.108c-.102.27-.166.51-.194.717 0 .402.151.604.456.604.576 0 1.544-.505 2.903-1.514.296-.19.526-.32.705-.4.063-1.311.277-2.34.649-3.078.149-.388.353-.81.608-1.267l.144-.296c.352-.684 1.078-1.924 2.181-3.722.572-.678 1.063-1.075 1.473-1.193l.245-.052a.836.836 0 01.114-.017zm21.758 13.525h-.019c-.109 0-.334.258-.675.775-.43.49-.92 1.39-1.467 2.702-.175.614-.262 1.093-.262 1.44 0 1.095.112 1.745.335 1.952.374.59.9 1.015 1.583 1.279.223.053.417.08.584.08.893 0 1.609-.465 2.149-1.396.22-.537.343-.984.371-1.34l.006-.148v-.256c0-1.067-.568-2.349-1.704-3.847l-.224-.351c-.315-.485-.54-.782-.677-.89zm-32.142 4.887l-1.112 3.119h2.202l-1.09-3.119zm9.036-.51h-1.51v2.68h1.51c.423 0 .75-.116.981-.349.23-.232.347-.57.347-1.01 0-.424-.116-.75-.347-.98-.23-.227-.558-.342-.981-.342zm-9.282-8.812h-.195c-.572 0-1.254.438-2.045 1.316-.516.674-.773 1.228-.773 1.663.045.2.14.313.283.341l.076.007h.17c.308 0 .904-.394 1.787-1.183l.368-.336c.52-.45.804-.843.851-1.18l.007-.099v-.064c0-.31-.176-.465-.529-.465zm-6.545-1.074a.733.733 0 00-.136.02c-.225.05-.443.166-.649.27 0 .012-.131.067-.148.075l-.298.16-.146.081c-.202.113-.402.23-.6.35l-.313.193-.27.176c-.006.007-.003.013.02.015.038.003.084-.013.12-.02l.867-.176.41-.094c.236-.06.47-.133.696-.227.204-.086.415-.178.58-.328.095-.086.306-.372.1-.457a.543.543 0 00-.233-.038zm16.955-7.256h-.019c-.169.06-.407.277-.715.65l-.119.148c-.178.22-.935 1.485-2.27 3.792-.787 1.625-1.203 2.803-1.25 3.533l-.004.132v.123c.003.054-.005.09-.023.11l-.02.013c.132-.038.343-.242.64-.612l.225-.292c.99-1.106 1.641-2.03 1.955-2.771.66-1.302 1.145-2.472 1.454-3.51l.091-.444c.04-.21.065-.359.071-.447l.002-.11-.002-.175c-.003-.093-.008-.14-.016-.14zm-24.24 1.362l-.028.003c-.203.04-.35.185-.464.346a16.564 16.564 0 00-1.2 1.93 16.812 16.812 0 00-1.138 2.614l-.108.34-.342 1.411c.122-.059.221-.154.312-.256l.09-.104c.765-.908 1.53-1.829 2.098-2.872.169-.31.319-.632.444-.963.085-.222.154-.45.22-.678l.098-.342c.04-.138.078-.277.106-.418.064-.321.076-.663-.04-.97-.006-.012-.01-.024-.02-.032l-.027-.009zm39.077-.003h-.019c-.235 0-.566.364-.992 1.091-.23.268-.43.621-.596 1.06-.276.37-.688 1.257-1.236 2.659-.153.465-.27.907-.353 1.326l-.055.31v.049c.005.06 0 .102-.014.126l-.01.01.025-.01.09-.074c.124-.114.319-.327.585-.64 1.363-1.63 2.15-2.95 2.362-3.96.174-.413.261-.879.261-1.396l-.01-.237c-.01-.204-.023-.309-.038-.314z" fill="currentColor" fill-rule="evenodd"/></svg>