<svg xmlns="http://www.w3.org/2000/svg" viewBox="0 0 24 24"><path fill="currentColor" fill-rule="evenodd" d="M6.623 0h10.754a6.631 6.631 0 016.619 6.391l.004.232v10.754a6.631 6.631 0 01-6.391 6.619l-.232.004H6.623a6.631 6.631 0 01-6.619-6.391L0 17.377V6.623A6.631 6.631 0 016.39.004L6.624 0zm10.824 2H6.552a4.558 4.558 0 00-4.547 4.339L2 6.553v10.894a4.558 4.558 0 004.338 4.548l.214.005h10.895a4.558 4.558 0 004.548-4.339l.005-.214V6.553A4.558 4.558 0 0017.447 2zM12 6c3.308 0 6 2.692 6 6 0 3.309-2.692 6-6 6s-6-2.691-6-6c0-3.308 2.692-6 6-6zm0 2c-2.204 0-4 1.796-4 4 0 2.204 1.796 4 4 4 2.204 0 4-1.796 4-4 0-2.204-1.796-4-4-4zm6.505-3.99c.396 0 .783.16 1.061.44.28.278.44.665.44 1.06s-.16.782-.44 1.061c-.28.279-.665.44-1.06.44s-.782-.161-1.06-.44c-.28-.28-.44-.666-.44-1.06 0-.396.16-.783.44-1.061.278-.28.665-.44 1.06-.44z"/></svg>