<svg xmlns="http://www.w3.org/2000/svg" viewBox="0 0 24 24"><path fill="currentColor" fill-rule="evenodd" d="M12.5 1C17.187 1 21 4.708 21 9.3c0 2.63-1.545 5.042-3.63 6.588l-.226.163-.148.1v2.066a2.2 2.2 0 01-.376 1.232l-.109.148-.086.098-.038.155c-.463 1.7-1.685 2.959-3.466 3.13l-.217.015L12.5 23c-1.913 0-3.29-1.223-3.833-2.95l-.06-.201-.037-.152-.084-.098a2.195 2.195 0 01-.458-1.02l-.023-.192-.006-.17-.001-2.067-.445-.1C5.51 14.623 4.194 12.37 4.02 9.87l-.015-.29L4 9.3C4 4.708 7.813 1 12.5 1zm1.883 19h-3.766c.39.6 1.088 1 1.883 1 .795 0 1.494-.4 1.883-1zm.8-3.001H9.815v1h5.368v-1zM12.5 3C8.902 3 6 5.801 6 9.239c0 2.245 1.246 4.285 3.238 5.397.16.09.294.215.391.363h5.742c.097-.148.23-.273.391-.363C17.754 13.524 19 11.484 19 9.239 19 5.8 16.098 3 12.5 3zm-.322 1.718a.824.824 0 010 1.65c-1.507 0-2.718 1.179-2.718 2.619a.824.824 0 11-1.645 0c0-2.363 1.959-4.269 4.363-4.269z"/></svg>