<svg xmlns="http://www.w3.org/2000/svg" viewBox="0 0 24 24"><path fill="currentColor" fill-rule="evenodd" d="M12.67 9.916a1 1 0 011.415 0 5.87 5.87 0 01.176 8.117l-.176.184-2.065 2.065a5.868 5.868 0 01-8.3 0 5.868 5.868 0 01-.177-8.117l.176-.184 1.574-1.574a1 1 0 011.498 1.32l-.083.095-1.574 1.574a3.868 3.868 0 005.312 5.622l.16-.15 2.064-2.065a3.87 3.87 0 000-5.472 1 1 0 010-1.415zM9.916 5.784l2.065-2.065a5.868 5.868 0 018.3 0 5.868 5.868 0 01.177 8.117l-.176.184-1.574 1.574a1 1 0 01-1.498-1.32l.083-.095 1.574-1.574a3.868 3.868 0 00-5.312-5.622l-.16.15-2.064 2.065a3.87 3.87 0 000 5.472 1 1 0 01-1.415 1.415 5.87 5.87 0 01-.176-8.117l.176-.184 2.065-2.065-2.065 2.065z"/></svg>