<svg xmlns="http://www.w3.org/2000/svg" viewBox="0 0 80 80"><path d="M25.061 7.515l.1.183.092.189 5.212 11.474a5.766 5.766 0 004.899 3.371 5.366 5.366 0 004.927-2.593l.119-.208 6.506-12.018A4.11 4.11 0 0151.8 5.96a3.375 3.375 0 012.167 4.253l-.068.19-.08.186-6.938 14.987c-.078.168-.153.341-.226.518l-.108.27-.13.347.102.006.166.014.36.048.216.04.248.057.255.072.223.074.197.075.127.054.21.097.264.142.265.163.084.058.097.069.122.092.16.13.04.035.152.14.137.137a4.807 4.807 0 01.603.767l.153.256.093.176.107.225.073.171.084.219.053.157.03.096.045.154.055.217.058.284c.069.375.104.768.104 1.175 0 .513-.055 1.026-.164 1.536a8.012 8.012 0 01-.22.816l-.117.331-.069.181-.066.165-.036.08-.056.133-.012.02-.018.043-.322.645c-.114.214-.234.426-.36.636l-.315.498-.273.396a9.946 9.946 0 01-.204.282l-.265.343-.243.297-.182.212-.216.245-.234.252-.222.231-.21.21-.276.267-.057.052.255.22c.685.575 1.506 1.115 2.474 1.615l.423.212.497.231.4.163.326.122c1.569.567 4.434 1.381 8.557 2.425l1.9.476 2.835.692a4.122 4.122 0 013.1 4.678 4.13 4.13 0 01-4.236 3.455l-.208-.013-20.575-1.846a3.39 3.39 0 00-2.646.928 3.033 3.033 0 00-.933 2.313l.015.2 1.674 15.613a3.988 3.988 0 01-3.441 4.378 4.317 4.317 0 01-4.663-2.916l-.063-.205-6.992-25.113a18.321 18.321 0 01.314-10.841l.276-.78a11.64 11.64 0 00-.404-8.436l-.154-.33-7.905-16.34a3.753 3.753 0 012.026-5.136 4.122 4.122 0 015.046 1.768zm-3.975.613l-.134.044-.086.038c-.535.259-.78.877-.585 1.424l.049.117 7.904 16.34a14.24 14.24 0 01.669 10.768l-.278.784a15.721 15.721 0 00-.368 8.853l.11.417 6.992 25.113a1.716 1.716 0 001.88 1.24 1.388 1.388 0 001.205-1.392l-.008-.131-1.675-15.612a5.633 5.633 0 011.706-4.67 5.99 5.99 0 014.405-1.657l.272.019 20.574 1.845a1.53 1.53 0 001.647-1.275c.13-.787-.37-1.54-1.145-1.727l-2.441-.595-1.943-.484c-4.966-1.251-8.222-2.192-9.83-2.846l-.134-.055-.246-.108c-1.846-.844-3.341-1.828-4.503-2.943-.553.393-1.13.757-1.721 1.092l-.248.138-1.142.601-1.056-.545-.339-.185a20.042 20.042 0 01-3.389-2.4c-1.635-1.44-2.887-3.054-3.747-4.878l-.082-.176-.136-.33-.163-.451a7.615 7.615 0 01-.4-2.388c0-3.169 2.13-5.413 5.24-5.413l.257.006a5.154 5.154 0 013.572 1.713l.232.255.23-.255a5.274 5.274 0 011.248-1.018c.239-.884.52-1.706.843-2.468l.2-.449L51.46 9.496l.033-.086a.775.775 0 00-.498-.977 1.51 1.51 0 00-1.72.594l-.074.124-6.506 12.018a7.966 7.966 0 01-7.49 4.158 8.367 8.367 0 01-6.984-4.629l-.124-.261-5.212-11.475a1.521 1.521 0 00-1.8-.834zM46.06 29.3a2.512 2.512 0 00-.459.042 2.576 2.576 0 00-1.44.82l-2.16 2.391-2.16-2.39a2.548 2.548 0 00-1.9-.863c-1.643 0-2.641 1.05-2.641 2.811 0 .503.086 1.018.259 1.545l.133.368.091.224.052.108c.7 1.483 1.734 2.815 3.112 4.03l.388.331a17.566 17.566 0 002.545 1.747l.123.066.12-.066c.879-.498 1.719-1.07 2.494-1.706l.22-.185.218-.187.336-.306c.16-.149.314-.3.464-.452.855-.873 1.547-1.802 2.067-2.783l.28-.567.062-.136.047-.117.096-.262.039-.112c.17-.519.254-1.033.254-1.54 0-1.76-.997-2.811-2.64-2.811zm13.09 5.792l.135.05 4.602 1.954a1.5 1.5 0 01-1.036 2.812l-.136-.05-4.602-1.954a1.5 1.5 0 011.036-2.812zm-41.1 1.106a1.5 1.5 0 01-.795 1.853l-.135.053-4.727 1.628a1.5 1.5 0 01-1.111-2.783l.134-.053 4.728-1.628a1.5 1.5 0 011.906.93zM64.5 28a1.5 1.5 0 01.144 2.993L64.5 31h-5a1.5 1.5 0 01-.144-2.993L59.5 28h5zm-49 0a1.5 1.5 0 01.144 2.993L15.5 31h-5a1.5 1.5 0 01-.144-2.993L10.5 28h5zm49.734-7.933a1.5 1.5 0 01-.73 1.88l-.132.057-4.668 1.792a1.5 1.5 0 01-1.208-2.742l.132-.058 4.668-1.792a1.5 1.5 0 011.938.863zm-52.52-.804l.14.038 4.755 1.545a1.5 1.5 0 01-.787 2.891l-.14-.038-4.755-1.545a1.5 1.5 0 01.787-2.891zM35.5 10.8a4.7 4.7 0 110 9.4 4.7 4.7 0 010-9.4zm0 2.4a2.3 2.3 0 100 4.6 2.3 2.3 0 000-4.6z" fill="currentColor" fill-rule="evenodd"/></svg>