<svg xmlns="http://www.w3.org/2000/svg" viewBox="0 0 80 80"><path d="M52.561 26.47c5.6.995 9.317 3.694 10.984 8.065a16.18 16.18 0 014.39 5.017l.196.362 9.403 17.805a1.2 1.2 0 01-2.055 1.233l-.067-.112-9.403-17.806a13.8 13.8 0 00-6.415-6.083l-.345-.153-5.795-2.487a4.529 4.529 0 00-1.786-.368c-.393 0-.773.132-1.08.372l-.127.11-8.805 8.336a.46.46 0 00-.028.639.651.651 0 00.845.113l3.975-2.587c1.72-1.109 2.702-1.72 3.01-1.872.785-.387 1.987-.61 2.642-.566 3.956.26 6.799 3.079 7.804 6.991 1.08 4.206-2.218 9.947-9.725 12.857l-.392.148c-3.015 1.108-6.055 3.46-7.641 5.561a1.255 1.255 0 001.426 1.937l5.294-1.889c3.258-1.147 5.175-1.779 5.864-1.93l.296-.052.114-.011c.14-.01.32-.011.647-.002l1.987.07c.955.029 1.689.027 2.445-.012 2.2-.116 3.624-.57 4.074-1.269l.055-.097a1.2 1.2 0 012.146 1.075c-.612 1.221-1.789 1.946-3.453 2.338 1.923 1.29 3.1 3.165 3.1 5.654a1.2 1.2 0 11-2.4 0c0-1.736-.856-2.974-2.365-3.869a8.266 8.266 0 00-1.772-.773l-.286-.084-.236-.06a3.781 3.781 0 00-.244-.051 1.196 1.196 0 01-.746-.441l-.76-.023-1.825-.062-.196.004a.709.709 0 00-.038.003l-.111.022-.202.053c-1.123.313-4.745 1.564-10.575 3.664a3.655 3.655 0 01-4.589-1.977 3.655 3.655 0 01-4.586 1.977l-4.77-1.704c-3.062-1.08-5.03-1.744-5.804-1.96l-.202-.053-.111-.022-.088-.006h-.147l-2.34.077-.244.007c-.179.227-.44.39-.746.44l-.148.03c-.06.013-.13.03-.208.05l-.124.032-.286.084a8.266 8.266 0 00-1.772.773c-1.51.895-2.366 2.133-2.366 3.87a1.2 1.2 0 11-2.4 0c0-2.49 1.178-4.365 3.1-5.655-1.664-.392-2.84-1.117-3.452-2.338a1.2 1.2 0 012.08-1.188l.12.21c.45.699 1.874 1.153 4.074 1.269.757.04 1.49.04 2.446.013l1.986-.071a5.61 5.61 0 01.706.007l.055.006.296.051.264.066c.716.191 2.128.655 4.286 1.405l2.408.846 4.2 1.503a1.255 1.255 0 001.427-1.937c-1.526-2.02-4.395-4.272-7.294-5.427l-.74-.282c-7.507-2.91-10.804-8.651-9.724-12.857 1.005-3.912 3.847-6.73 7.803-6.991.656-.044 1.858.179 2.643.566l.184.1c.358.203 1.05.634 2.1 1.307l.725.465 3.976 2.587c.27.178.63.13.845-.113a.46.46 0 00.03-.57l-.059-.07-8.804-8.336-.127-.109a1.756 1.756 0 00-1.08-.372c-.527 0-1.048.092-1.542.271l-.245.097-5.794 2.487-.346.153a13.8 13.8 0 00-6.225 5.737l-.19.346L4.185 58.84l-.068.112a1.2 1.2 0 01-2.11-1.114l.055-.12 9.403-17.804.197-.362a16.18 16.18 0 014.39-5.017c1.667-4.37 5.383-7.07 10.983-8.065a7.2 7.2 0 015.2 1.062l.48.318c1.06.712 1.71 1.228 2.03 1.637.213.27.399.552.559.843.83 1.51.915 3.095.567 4.547a6.459 6.459 0 01-.07.269l-.069.222 3.858 3.65.135.136.075.084.073-.084.134-.136 3.858-3.65-.069-.222a6.459 6.459 0 01-.07-.27c-.347-1.45-.263-3.036.568-4.546.16-.291.346-.573.558-.843.366-.468 1.164-1.075 2.51-1.955a7.2 7.2 0 015.2-1.062zm-24.82 12.412h-.088c-2.825.187-4.871 2.215-5.636 5.194-.766 2.98 1.85 7.532 8.253 10.017l.737.28c3.335 1.32 6.57 3.858 8.358 6.225.177.234.32.483.434.74.11-.257.255-.506.432-.74 1.788-2.367 5.022-4.905 8.358-6.225l.37-.141c6.67-2.451 9.4-7.119 8.62-10.156-.765-2.979-2.811-5.007-5.637-5.194-.245-.016-1.026.129-1.422.324l-.184.103c-.696.409-2.941 1.851-6.549 4.212a3.051 3.051 0 01-3.958-.533l-.032-.037-.03.037a3.052 3.052 0 01-3.79.636l-.169-.103-4.156-2.703a101.458 101.458 0 00-2.323-1.468l-.254-.144c-.356-.176-1.025-.31-1.333-.324zm20.934-9.341l-.396.262-.516.354c-.572.401-.926.686-1.023.81a3.736 3.736 0 00-.803 2.435l2.874-2.72a4.156 4.156 0 012.857-1.139c.822 0 1.637.147 2.406.432l.327.13 4.897 2.102c-1.64-1.693-4.01-2.815-7.157-3.374a4.8 4.8 0 00-3.466.708zm-17.754 0a4.8 4.8 0 00-3.467-.708c-3.003.534-5.299 1.58-6.929 3.147l-.228.227 4.898-2.102.327-.13a6.929 6.929 0 012.405-.432c.982 0 1.928.348 2.675.976l.183.163 2.873 2.72a3.736 3.736 0 00-.802-2.435l-.079-.083c-.172-.165-.55-.456-1.106-.84l-.354-.24-.396-.263zm38.794-10.356a1.5 1.5 0 01.132 2.013l-.095.108-3.473 3.597a1.5 1.5 0 01-2.254-1.975l.096-.109 3.473-3.597a1.5 1.5 0 012.12-.037zm-58.181-.373l.12.082 3.993 3.009a1.5 1.5 0 01-1.686 2.477l-.12-.081-3.993-3.01a1.5 1.5 0 011.686-2.477zm47.213-7.68a1.5 1.5 0 01.616 1.92l-.067.13-2.5 4.33a1.5 1.5 0 01-2.664-1.372l.066-.129 2.5-4.33a1.5 1.5 0 012.05-.549zm-33.606-.547l.06.131 1.874 4.636a1.5 1.5 0 01-2.721 1.256l-.06-.132-1.874-4.636a1.5 1.5 0 012.721-1.255zm14.54-3.92a1.5 1.5 0 011.516 1.33l.01.145.087 4.999a1.5 1.5 0 01-2.99.196l-.01-.144-.087-5a1.5 1.5 0 011.473-1.525z" fill="currentColor" fill-rule="evenodd"/></svg>