<svg xmlns="http://www.w3.org/2000/svg" viewBox="0 0 80 80"><path d="M41 6.7c8.012 0 14.585 6.158 15.245 14H67a5.3 5.3 0 015.296 5.082L72.3 26v37a5.3 5.3 0 01-5.082 5.296L67 68.3H13a5.3 5.3 0 01-5.296-5.082L7.7 63V26a5.3 5.3 0 015.082-5.296L13 20.7h12.755c.66-7.842 7.233-14 15.245-14zm-7.572 42.043L10.299 62.919 10.3 63a2.7 2.7 0 002.53 2.695l.17.005h54a2.7 2.7 0 002.695-2.53L69.7 63l-.001-.082-23.13-14.174-5.794 4.3a1.3 1.3 0 01-1.431.078l-.119-.078-5.797-4.301zm-23.129-17.16V59.87l20.88-12.796-20.88-15.491zm59.4.001L48.82 47.074 69.699 59.87V31.584zM25.754 23.3H13a2.7 2.7 0 00-2.695 2.53L10.3 26l-.001 2.344L40 50.38l29.699-22.035L69.7 26a2.7 2.7 0 00-2.53-2.695L67 23.3H56.246c-.66 7.841-7.234 14-15.246 14s-14.586-6.159-15.246-14zM41 9.3c-7.014 0-12.7 5.686-12.7 12.7 0 7.014 5.686 12.7 12.7 12.7 7.014 0 12.7-5.686 12.7-12.7 0-7.014-5.686-12.7-12.7-12.7zm6.407 7.759a1.3 1.3 0 01.136 1.73l-.092.108-8.968 9.41-3.947-4.53a1.3 1.3 0 011.862-1.81l.1.102 2.071 2.379 7-7.345a1.3 1.3 0 011.838-.044z" fill="currentColor" fill-rule="evenodd"/></svg>