<svg xmlns="http://www.w3.org/2000/svg" width="24" height="24" viewBox="0 0 24 24">
    <g fill="none" fill-rule="evenodd">
        <g fill="#FF6F00">
            <g>
                <g>
                    <path d="M11.985 10.571l7.778-7.778c.391-.39 1.024-.39 1.415 0 .39.39.39 1.024 0 1.414l-7.779 7.778 7.779 7.778c.39.391.39 1.024 0 1.415-.39.39-1.024.39-1.415 0l-7.778-7.779-7.778 7.779c-.39.39-1.024.39-1.414 0-.39-.39-.39-1.024 0-1.415l7.778-7.778-7.778-7.778c-.39-.39-.39-1.024 0-1.414.39-.39 1.024-.39 1.414 0l7.778 7.778z" transform="translate(-976 -210) translate(420 190) translate(556 20)"/>
                </g>
            </g>
        </g>
    </g>
</svg>