<svg xmlns="http://www.w3.org/2000/svg" viewBox="0 0 24 24"><path d="M17.5 0a2.5 2.5 0 012.495 2.336L20 2.5v2.614l2.66 1.769a3 3 0 011.333 2.298l.007.2V20a4 4 0 01-3.8 3.995L20 24H4a4 4 0 01-3.995-3.8L0 20V9.381A3 3 0 011.177 7l.163-.116L4 5.114V2.5A2.5 2.5 0 016.336.005L6.5 0h11zM22 10.887l-8.315 5.644a3 3 0 01-3.187.115l-.183-.115L2 10.887V20a2 2 0 001.85 1.995L4 22h16a2 2 0 001.995-1.85L22 20v-9.113zM17.5 2h-11a.5.5 0 00-.492.41L6 2.5v8.685l5.438 3.691a1 1 0 001.007.069l.117-.069L18 11.184V2.5a.5.5 0 00-.41-.492L17.5 2zm-1.774 3.312a1 1 0 01.048 1.322l-.086.092-4.217 4a1 1 0 01-1.256.097l-.101-.08-1.783-1.602a1 1 0 011.24-1.566l.098.079 1.095.984 3.548-3.364a1 1 0 011.414.038zM4 7.515L2.447 8.548a1 1 0 00-.151.123L4 9.827V7.515zm16 .001v2.311l1.704-1.156-.051-.047-.1-.076L20 7.516z" fill="currentColor" fill-rule="evenodd"/></svg>