<svg xmlns="http://www.w3.org/2000/svg" viewBox="0 0 24 24"><path fill="currentColor" fill-rule="evenodd" d="M20.123 18.736l-.119.135c-.096.107-.197.216-.304.326l-.295.296-.469.441-.303.264c-.616.49-1.34.756-2.14.8l-.243.007h-.114l-.178-.007c-1.21-.077-2.277-.43-3.538-1.03a17.929 17.929 0 01-5.96-4.647c-1.36-1.632-2.297-3.181-2.92-4.857-.428-1.141-.603-2.12-.521-3.108a3.656 3.656 0 011.1-2.33l.575-.548c.987-.926 1.453-1.26 2.08-1.407.934-.216 1.7.081 2.291.62l.143.137 1.976 1.97c1.119 1.114 1.164 2.653.134 3.8l-.134.142-.58.58c.13.202.286.417.475.657l.28.334c.741.856 1.505 1.531 2.324 2.062l.589-.586c.503-.501 1.123-.85 1.952-.85.844 0 1.503.377 1.927.843l1.976 1.967c1.086 1.07 1.15 2.571.232 3.71l-.237.28zM9.774 7.216l-1.976-1.97-.097-.093a.506.506 0 00-.473-.133c-.155.036-.563.36-1.223.975l-.498.472a1.635 1.635 0 00-.495 1.06c-.054.653.068 1.345.402 2.234.541 1.456 1.359 2.812 2.582 4.28a15.918 15.918 0 005.292 4.125c.668.318 1.537.686 2.48.805l.317.03.165.004c.435 0 .79-.11 1.096-.34l.129-.106c.042-.038.799-.706 1.25-1.269.365-.378.369-.755 0-1.119l-2.045-2.035a.689.689 0 00-.455-.2c-.226 0-.42.147-.541.269l-1.26 1.253a.748.748 0 01-.512.214c-.295 0-.715-.238-.978-.404l-.558-.363c-1.017-.692-1.951-1.568-2.842-2.66l-.2-.257c-.437-.58-.74-1.09-.962-1.627l-.03-.096a.698.698 0 01.124-.655l.082-.092.323-.299.297-.29.606-.606c.38-.379.38-.729 0-1.107z"/></svg>