<svg xmlns="http://www.w3.org/2000/svg" width="24" height="24" viewBox="0 0 24 24">
    <g fill="none" fill-rule="evenodd">
        <g fill="#9FA5A5">
            <g>
                <path d="M12 5.4c3.645 0 6.6 2.955 6.6 6.6 0 3.645-2.955 6.6-6.6 6.6-3.645 0-6.6-2.955-6.6-6.6 0-3.645 2.955-6.6 6.6-6.6zm0 1.2c-2.983 0-5.4 2.417-5.4 5.4 0 2.983 2.417 5.4 5.4 5.4 2.983 0 5.4-2.417 5.4-5.4 0-2.983-2.417-5.4-5.4-5.4zm0 8.067c.369 0 .667.298.667.666 0 .368-.298.667-.667.667-.369 0-.667-.299-.667-.667 0-.368.298-.666.667-.666zm.442-6.842c1.26.174 2.244 1.339 2.122 2.631-.091.967-.633 1.627-1.525 2.278l-.196.14-.128.1c-.11.095-.147.16-.155.202v.023l.011.071.003.093c-.012.247-.177.47-.426.545-.286.086-.585-.05-.712-.31l-.036-.091-.024-.108c-.07-.429.083-.913.55-1.328l.17-.139.24-.17c.625-.462.985-.9 1.033-1.419.06-.635-.451-1.241-1.09-1.33-.651-.09-1.335.315-1.57.946-.115.311-.46.47-.771.353-.31-.115-.469-.46-.353-.771.432-1.16 1.652-1.882 2.857-1.716z" transform="translate(-312.000000, -1188.000000) translate(312.000000, 1188.000000)"/>
            </g>
        </g>
    </g>
</svg>
