<svg xmlns="http://www.w3.org/2000/svg" viewBox="0 0 24 24"><path d="M2.252 11.161c.582 0 1.053.462 1.053 1.032 0 4.557 3.77 8.251 8.419 8.251a8.486 8.486 0 005.585-2.076l-3.507.059a1.043 1.043 0 01-1.071-1.014c-.01-.57.453-1.039 1.034-1.049l5.261-.09c.581-.01 1.06.444 1.07 1.013l.093 5.157c.01.57-.453 1.039-1.034 1.049a1.043 1.043 0 01-1.071-1.013l-.037-2.041a10.63 10.63 0 01-6.323 2.068C5.912 22.507 1.2 17.889 1.2 12.193c0-.57.471-1.032 1.052-1.032zM4.597.501c.581-.01 1.06.443 1.071 1.012l.037 2.041a10.63 10.63 0 016.323-2.068c5.812 0 10.524 4.618 10.524 10.314 0 .57-.471 1.032-1.052 1.032a1.042 1.042 0 01-1.053-1.032c0-4.557-3.77-8.251-8.419-8.251a8.486 8.486 0 00-5.585 2.076l3.507-.058c.582-.01 1.06.443 1.071 1.013.01.57-.453 1.04-1.034 1.049l-5.261.09a1.043 1.043 0 01-1.07-1.013l-.093-5.157C3.553.98 4.016.51 4.597.5z" fill="currentColor" fill-rule="evenodd"/></svg>