<svg width="17" height="16" viewBox="0 0 17 16" fill="none" xmlns="http://www.w3.org/2000/svg">
<g clip-path="url(#clip0_529:5576)">
<path d="M9.49975 15.3327C8.63403 15.3336 7.77735 15.1566 6.98293 14.8125C6.18851 14.4685 5.47331 13.9648 4.88175 13.3327H3.16642C2.99552 13.3338 2.83071 13.2693 2.70601 13.1525C2.58131 13.0356 2.50624 12.8754 2.49632 12.7047C2.48639 12.5341 2.54237 12.3662 2.65268 12.2357C2.76299 12.1052 2.91921 12.022 3.08908 12.0033L3.16642 11.9993H3.92042C3.69254 11.5766 3.51361 11.1293 3.38708 10.666H1.83308C1.66322 10.6657 1.4999 10.6005 1.37647 10.4838C1.25304 10.3671 1.17881 10.2077 1.16894 10.0381C1.15907 9.86851 1.2143 9.70156 1.32336 9.57133C1.43242 9.4411 1.58707 9.35741 1.75575 9.33735L1.83308 9.33268H3.17508C3.16642 9.21801 3.16642 9.10535 3.16642 8.99935C3.16631 8.66447 3.19261 8.3301 3.24508 7.99935H1.16642C0.989605 8.0096 0.815962 7.9492 0.683686 7.83143C0.55141 7.71366 0.471337 7.54816 0.461082 7.37135C0.450827 7.19454 0.51123 7.02089 0.629003 6.88862C0.746776 6.75634 0.912271 6.67627 1.08908 6.66602H1.16642H3.61108C4.0184 5.64569 4.68324 4.74836 5.54073 4.06157C6.39822 3.37478 7.41909 2.92199 8.50375 2.74735V2.70868L8.49975 1.99935H7.83308C7.65627 1.99935 7.4867 1.92911 7.36168 1.80409C7.23665 1.67906 7.16642 1.50949 7.16642 1.33268C7.16642 1.15587 7.23665 0.986302 7.36168 0.861278C7.4867 0.736254 7.65627 0.666016 7.83308 0.666016H11.1664C11.3432 0.666016 11.5128 0.736254 11.6378 0.861278C11.7628 0.986302 11.8331 1.15587 11.8331 1.33268C11.8331 1.50949 11.7628 1.67906 11.6378 1.80409C11.5128 1.92911 11.3432 1.99935 11.1664 1.99935H10.4997V2.66602C10.4997 2.69231 10.4982 2.71857 10.4951 2.74468C12.0686 2.99503 13.49 3.82928 14.4757 5.08107C15.4615 6.33286 15.9392 7.9102 15.8136 9.49857C15.688 11.0869 14.9683 12.5696 13.7981 13.6509C12.6279 14.7322 11.0931 15.3327 9.49975 15.3327ZM9.49975 3.99935C8.51084 3.99935 7.54414 4.29259 6.7219 4.842C5.89965 5.39141 5.25879 6.1723 4.88035 7.08593C4.50191 7.99956 4.4029 9.0049 4.59582 9.9748C4.78875 10.9447 5.26495 11.8356 5.96422 12.5349C6.66348 13.2341 7.55439 13.7103 8.5243 13.9033C9.4942 14.0962 10.4995 13.9972 11.4132 13.6187C12.3268 13.2403 13.1077 12.5994 13.6571 11.7772C14.2065 10.955 14.4998 9.98826 14.4998 8.99935C14.4983 7.6737 13.9711 6.40275 13.0337 5.46537C12.0963 4.528 10.8254 4.00076 9.49975 3.99935ZM11.1664 9.99935H9.16642C8.9896 9.99935 8.82004 9.92911 8.69501 9.80409C8.56999 9.67906 8.49975 9.50949 8.49975 9.33268V6.66602C8.49975 6.4892 8.56999 6.31963 8.69501 6.19461C8.82004 6.06959 8.9896 5.99935 9.16642 5.99935C9.34323 5.99935 9.5128 6.06959 9.63782 6.19461C9.76284 6.31963 9.83308 6.4892 9.83308 6.66602V8.66602H11.1664C11.3432 8.66602 11.5128 8.73625 11.6378 8.86128C11.7628 8.9863 11.8331 9.15587 11.8331 9.33268C11.8331 9.50949 11.7628 9.67906 11.6378 9.80409C11.5128 9.92911 11.3432 9.99935 11.1664 9.99935Z" fill="#B2315D"/>
</g>
<defs>
<clipPath id="clip0_529:5576">
<rect width="16" height="16" fill="white" transform="translate(0.5)"/>
</clipPath>
</defs>
</svg>
