<svg xmlns="http://www.w3.org/2000/svg" viewBox="0 0 24 24"><path fill="currentColor" fill-rule="evenodd" d="M17.642 2a.5.5 0 01.09.992l-.09.008H15.27l-1.131 2.5H15.5a.5.5 0 01.5.5v1.75l1.8 1.35a.5.5 0 01.2.4v.5h1a2 2 0 011.995 1.85L21 12v5a2 2 0 01-1.85 1.995L19 19h-1v.5a2 2 0 01-2 2H8a2 2 0 01-2-2v-10a.5.5 0 01.2-.4L8 7.75V6a.5.5 0 01.5-.5h4.542L14.624 2h3.018zM7.235 13.297L7 13.378V19.5a1 1 0 001 1h8a1 1 0 001-1v-5.802l-.077.024a8.56 8.56 0 01-5.356-.29 6.058 6.058 0 00-4.332-.135zM18 18h1a1 1 0 00.993-.883L20 17v-5a1 1 0 00-.883-.993L19 11h-1v7zm-6.314-9.5H8.665L7 9.75v2.571l.215-.068a7.05 7.05 0 014.727.251 7.55 7.55 0 004.701.258l.357-.106V9.75L15.335 8.5h-2.552l-1.223 2.707a.5.5 0 01-.576.279l-.085-.03a.5.5 0 01-.28-.576l.03-.085L11.686 8.5zm.904-2H9v1h3.138l.452-1zm2.41 0h-1.313l-.452 1H15v-1z"/></svg>