<svg xmlns="http://www.w3.org/2000/svg" viewBox="0 0 80 80"><path d="M29.607 7.5c.372.012.81.084 1.285.26.719.269 1.349.726 1.823 1.41.675.98.787 2.023.607 2.955h2.202c.724-.041 1.488.13 2.153.658l.164.14.16.155a3.08 3.08 0 01.877 2.178l-.006.178v4.117a1.446 1.446 0 01-.037.299 9.251 9.251 0 011.81 2.97c.81 2.156.679 4.397.015 6.45a9.673 9.673 0 01-.804 1.567c-.316.49-.676.95-1.075 1.371l-.23.231-.01.026a1.04 1.04 0 00-.05.204l-.012.112c-.01.097.032.324.145.527.07.128.12.184.288.302l.094.065c.255.175.468.35.685.576.766.808 1.1 1.965 1.01 3.36l-.024.282-.002 31.012c-.078 1.054-.485 2.1-1.424 2.923a4.035 4.035 0 01-2.632 1.116l-.208.005h-17.44l-.04-.003a.769.769 0 01-.115-.017l-.18-.025a4.716 4.716 0 01-2.515-1.213l-.187-.183c-.856-.89-1.243-1.918-1.343-2.946l-.017-.22V37.697c0-.937.104-1.584.533-2.353a3.58 3.58 0 01.726-.923l.155-.14c.2-.18.295-.281.397-.44l.063-.105c.211-.36.278-.531.273-.758a1.01 1.01 0 00-.154-.496l-.057-.083-.152-.14a5.416 5.416 0 01-.861-1.068l-.139-.239a5.812 5.812 0 01-.625-1.769l-.044-.301a13.508 13.508 0 01.01-4.562c.22-1.214.396-1.857.848-2.736a7.994 7.994 0 01.995-1.485 1.344 1.344 0 01-.108-.416l-.006-.133.001-4.257a3.015 3.015 0 01.749-2.172c.729-.824 1.647-1.071 2.551-1.01l.147.012h2.302a4.189 4.189 0 01-.09-.977 3.65 3.65 0 01.824-2.273A3.684 3.684 0 0125.54 7.51l.197-.01h3.87zM63.69 40.954c.38 0 .746.162 1.007.44.23.243.357.566.364.902l-.004.145-2.402 29.203c-.071.66-.6 1.178-1.252 1.24l-.132.006H48.04c-.677 0-1.246-.489-1.352-1.14l-.015-.133-.595-8.126a1.368 1.368 0 01-.026-.35l-1.18-16.1a1.45 1.45 0 01-.034-.29c0-.047.002-.093.007-.139l-.308-4.182a1.35 1.35 0 01.369-1.037 1.4 1.4 0 01.866-.432l.141-.007H63.69zM35.954 20.928h-16.32a5.524 5.524 0 00-1.646 1.905c-.302.59-.412.994-.587 1.959a10.643 10.643 0 00-.059 3.268l.063.431a2.807 2.807 0 00.865 1.78l.204.186.084.085a.233.233 0 01.04.055c.511.647.84 1.412.86 2.3.013.628-.134 1.192-.398 1.742l-.083.166-.163.294c-.257.444-.466.7-.823 1.042l-.163.153c-.19.171-.248.236-.328.372-.128.226-.17.423-.178.77l-.001.158v30.67c.015.403.186.903.578 1.307.318.324.696.503 1.027.577l.139.025h17.287c.345.014.742-.09 1.065-.373a1.54 1.54 0 00.496-.862l.018-.118.002-31.087c.076-.727-.008-1.326-.237-1.565l-.04-.037-.185-.146-.062-.046a4.174 4.174 0 01-.663-.548 3.367 3.367 0 01-.55-.753c-.372-.687-.505-1.398-.47-1.984.023-.586.19-1.171.472-1.668.052-.104.121-.203.196-.283l.076-.073c.404-.378.76-.804 1.063-1.273.21-.325.393-.676.539-1.023.461-1.428.56-3.053-.003-4.55a6.545 6.545 0 00-.969-1.73 6.234 6.234 0 00-1.146-1.126zm24.32 45.97c-.878.431-1.957.57-4.508.6l-.975.007-.852-.002-.949-.013-.618-.017c-1.661-.06-2.575-.214-3.297-.546l.239 3.216h10.695l.266-3.244zm1.543-18.787l-14.131.016 1.09 14.74c.274.534.618.968 1.015 1.288l.172.13.076.05.113.063c.444.223 1.241.327 3.314.354l.279.003 1.035.004 1.123-.009.757-.015c1.38-.038 1.987-.126 2.375-.297l.118-.058.101-.06c.532-.339.98-.831 1.326-1.468l.032-.065 1.205-14.676zm.363-4.411H47.368l.121 1.681 14.553-.017.138-1.664zm-34.5-12.561c.388 0 .757.16 1.01.443a31.196 31.196 0 012.717 3.381l.303.446c.605.91.879 1.477 1.038 2.083.534 2.018.177 3.61-.758 4.764-.867 1.073-2.217 1.677-3.829 1.74l-.287.006h-.188c-1.65-.042-2.994-.613-3.955-1.694-.867-1-1.349-2.318-1.203-3.992.05-.554.186-1.06.417-1.578l.1-.215.106-.21.11-.2c.233-.41.56-.897 1.149-1.744a25.129 25.129 0 012.262-2.79c.261-.277.627-.44 1.007-.44zm-.006 3.46l-.229.284c-.19.24-.37.476-.54.71l-.522.743-.272.398-.224.34c-.438.68-.574 1.015-.62 1.41l-.007.079c-.079.863.14 1.492.531 1.926.189.214.414.379.671.5.412.195.79.254 1.285.267.975.017 1.715-.25 2.09-.722.422-.521.513-1.294.238-2.334-.092-.336-.28-.708-.945-1.674a25.01 25.01 0 00-1.066-1.448l-.39-.479zm-8.347-19.703a.254.254 0 00-.068.036l-.024.022-.016.023-.016.03a.409.409 0 00-.035.134l-.003.079-.001 2.96c.082-.004.164 0 .245.01h16.588c.039-.01.078-.018.117-.025l.002-2.809.015-.121-.03-.08a.468.468 0 00-.089-.154.414.414 0 00-.22-.11l-.084-.01-16.02-.002-.066-.008h.018l-.07-.005a.598.598 0 00-.243.03zm10.06-4.64h-3.61a1.03 1.03 0 00-.639.274.313.313 0 00-.088.218v1.285h5.23v-1.412l-.047-.064c-.1-.122-.322-.3-.845-.3z" fill="currentColor" fill-rule="evenodd"/></svg>