<svg xmlns="http://www.w3.org/2000/svg" viewBox="0 0 80 80"><path d="M37.994 10.563l.12.1.09-.068c1.246-.928 2.679-1.52 4.326-1.591l.333-.008.338.007c1.958.079 3.602.858 4.921 2.026l.108.099.198-.066a10.577 10.577 0 016.52.051l.352.124.33.129a10.753 10.753 0 015.697 5.45l.059.134.125-.009c4.21-.269 8.28 1.876 10.573 5.566l.164.273.155.272c2.445 4.435 2.046 10.166-.946 14.283l-.109.145.073.139a7.584 7.584 0 01.818 3.918l-.027.317-.04.318c-.52 3.554-3.389 6.252-6.734 6.373l-.251.005c-2.199-.007-4.242-1.114-5.588-2.979l-.166-.239-.044.035c-1.048.75-2.228 1.273-3.52 1.453l-.325.037-.189.013-.421.813-.235.467c-.666 1.351-1.018 2.322-1.73 4.614l-.685 2.223a65.69 65.69 0 00-2.812 15.775 1.31 1.31 0 01-1.18 1.232l-.129.006h-13.38a1.312 1.312 0 01-1.306-1.167A150.876 150.876 0 0030.951 55.3l-.326-1.487-.369-1.638c-.55-2.399-1.007-4.165-1.592-6.142l-.357-1.182-.153.048c-1.573.46-3.181.584-4.726.361l-.385-.063-.382-.077-.254-.06-.092-.025-.075.098c-1.137 1.414-2.624 2.508-4.463 2.94l-.328.07-.301.05a8.342 8.342 0 01-1.192.083c-2.291 0-4.35-.814-5.718-2.825-1.472-2.164-1.48-4.67-.81-6.864a7.903 7.903 0 011.627-2.925l.118-.13-.079-.22c-1.312-3.73-1.678-7.919-.032-11.663l.165-.361.178-.358c1.78-3.434 4.916-5.538 8.476-6.642l.227-.069.09-.308c.269-.873.63-1.696 1.077-2.46l.231-.378.246-.367c1.878-2.7 4.856-4.403 8.168-4.67 2.89-.237 5.763.669 8.074 2.526zM31.42 43.41l-.183.116-.338.2-.164.09.318 1.044c.826 2.751 1.398 5.034 2.226 8.795l.24 1.093c.955 4.409 1.72 8.894 2.282 13.362l.152 1.272h10.981l.057-.751c.382-4.57 1.221-9.09 2.503-13.477l.281-.938.93-2.996c.62-1.958.977-2.877 1.617-4.174l.266-.534-.025-.007a7.508 7.508 0 01-2.89-1.787l-.196-.198.064.381.06.452.04.374c.166 1.69.065 3.37-.53 5.206a12.136 12.136 0 01-1.368 2.864c-.548.846-1.022 1.406-1.715 2.126a14.112 14.112 0 01-2.741 2.211 1.234 1.234 0 01-1.332-.019 1.295 1.295 0 01-.57-1.22c.227-2.158.37-4.347.424-6.505l.024-1.151c.01-.56.02-1.165.026-1.747l.008-1.243-.082.015c-.249.039-.5.07-.756.095l-.144.01v.244l-.01.177-.018.189a9.712 9.712 0 01-.032.236l-.022.147c-.057.367-.096.653-.132 1.042l-.04.44c-.05.47-.149 1.054-.289 1.743l-.164.771-.22.956-.168.697-.306 1.317c-.148.644-.291 1.284-.447 1.994-.116.53-.563.93-1.12 1.008a1.344 1.344 0 01-1.36-.656 41.842 41.842 0 01-1.493-2.914c-.812-1.74-1.45-3.41-1.824-4.91-.354-1.415-.568-2.924-.615-3.649-.02-.24-.036-.48-.047-.726l-.01-.247-.261-.17c-.243-.164-.476-.331-.699-.5l-.188-.148zm15.45.946l-.189.117a13.93 13.93 0 01-2.027 1.007l-.267.101-.004 1.508-.02 1.688-.034 1.679a83.657 83.657 0 01-.15 3.295l-.033.452.089-.09c.505-.523.842-.91 1.203-1.428l.157-.23a9.519 9.519 0 001.125-2.333c.522-1.61.56-2.884.378-4.468-.048-.411-.118-.82-.209-1.222l-.02-.076zm-11.514 1.262l.015.124c.103.795.255 1.658.467 2.504.271 1.086.711 2.303 1.27 3.584l.145.325.236-1.001.142-.641.06-.285.108-.538c.08-.424.139-.786.17-1.077l.066-.694.043-.37.05-.36.075-.503.009-.144v-.133l-.006-.095-.249-.032c-.885-.13-1.742-.35-2.57-.652l-.03-.012zM30.75 10.59l-.31.01-.298.02a8.317 8.317 0 00-6.184 3.54l-.14.207-.133.211c-.675 1.073-1.314 2.367-1.36 4.21l.033-.295c-.417 3.389.797 6.84 3.212 9.107l.238.216 1.474 1.293-1.792.835c-2.557 1.194-4.55 3.354-5.462 5.92-.614 1.726-.646 3.474-.1 4.543.519 1.016 1.762 1.84 3.328 2.19 2.333.52 4.926-.08 7.16-1.654l.278-.202.906-.68.828.768c.544.507 1.216 1.021 1.965 1.467.123.046.238.111.31.171 1.433.796 3.004 1.285 4.69 1.356l.427.008c3.266 0 5.926-1.483 7.81-3.4l.2-.208 1.486-1.587.751 2.022c.131.367.45.984.926 1.594.77.988 1.746 1.686 2.947 1.944 1.23.266 2.4-.006 3.474-.655.38-.23.721-.491 1.018-.763l.188-.179c.053-.053.098-.1.133-.139l1.522-1.817.808 2.134c.691 1.83 2.249 3.079 3.91 3.176l.211.006c2.081 0 3.992-1.82 4.334-4.153.314-2.132-.854-4.275-2.58-5.323-.852-.517-1.78-.699-2.735-.623a5.304 5.304 0 00-1.406.303l-.182.073-1.913.813.048-2.03c.019-.891-.21-1.85-.85-2.64-.752-.932-1.751-1.234-2.582-1.202l-.164.011-4.186.372 3.201-2.652c2.903-2.401 4.167-6.566 3.084-10.046l-.025-.065-.02-.063a6.011 6.011 0 00-.128-.37 8.103 8.103 0 00-4.499-4.607 7.877 7.877 0 00-5.873-.045l-.301.124-.916.393-.645-.746c-.864-1-2.156-1.824-3.778-1.89-1.594-.082-2.904.607-3.85 1.549l-.155.16-.962 1.024-.986-1.006c-1.763-1.8-4.013-2.757-6.385-2.73zm-11.13 8.87l.011-.343-.04.017c-2.541 1.015-4.647 2.628-5.862 4.971-1.452 2.803-1.402 6.107-.5 9.308l.126.421.147-.077.253-.124.119-.053.167-.07a1.32 1.32 0 011.707.72 1.29 1.29 0 01-.732 1.685c-.402.159-.901.442-1.403.871a5.387 5.387 0 00-1.672 2.555 6.848 6.848 0 00-.283 1.826c-.022 1.06.207 2.032.76 2.843 1.017 1.496 2.694 1.861 4.346 1.623 1.112-.162 2.074-.712 2.88-1.506l.164-.17-.246-.164c-.808-.56-1.456-1.243-1.894-2.002l-.125-.23c-.887-1.737-.894-4.12-.032-6.544.896-2.52 2.62-4.732 4.88-6.29l.383-.257-.044-.052c-2.075-2.457-3.192-5.689-3.11-8.958zm42.756.108l-.208-.001.01.055c.519 3.167-.312 6.506-2.256 9.138l-.22.288.17.071a5.68 5.68 0 011.955 1.437l.187.22a6.294 6.294 0 011.226 2.535l.014.068.047-.008c1.615-.276 3.262-.089 4.796.758l.27.156c.414.251.817.553 1.196.896l.06.058.027-.041c1.979-3.17 2.189-7.3.515-10.596l-.158-.297c-1.541-2.794-4.334-4.566-7.34-4.727l-.291-.01zm-10.952-.178l.218.203.17.172a6.69 6.69 0 011.434 2.383c.911 2.608.175 5.2-1.172 7.264-.235.362-.63.574-1.05.574-.25 0-.494-.075-.703-.22a1.304 1.304 0 01-.344-1.782 7.503 7.503 0 00.85-1.827c.34-1.094.388-2.16.045-3.141a4.063 4.063 0 00-.969-1.559c-.918-.895-2.104-1.175-3.257-1.1-.706.048-1.296-.484-1.345-1.198-.047-.707.477-1.322 1.173-1.37 1.684-.122 3.48.293 4.95 1.601zm-13.222-2.615c.645.32.908 1.108.588 1.758a1.305 1.305 0 01-1.754.59 6.752 6.752 0 00-1.865-.581c-1.15-.191-2.315-.103-3.447.354-1.795.725-2.923 2.08-3.522 3.458a1.307 1.307 0 01-1.72.683 1.312 1.312 0 01-.68-1.725c.861-1.991 2.44-3.84 4.946-4.85 2.763-1.116 5.398-.714 7.454.313z" fill="currentColor" fill-rule="evenodd"/></svg>