<svg xmlns="http://www.w3.org/2000/svg" viewBox="0 0 80 80"><path d="M65.399 17.61a1.327 1.327 0 01-1.27 2.286c-4.006-1.39-8.851-1.67-13.705.303-3.627 1.48-6.401 3.873-8.406 6.694a1.327 1.327 0 01-1.848.314 1.327 1.327 0 01-.313-1.849c2.276-3.201 5.437-5.924 9.564-7.607a21.276 21.276 0 018.417-1.58l.388.009-.082-.04c-7.644-3.719-16.564-4.002-24.188-.646l-.439.198c-9.74 4.486-16.162 13.954-16.363 24.102-.134 6.947 2.508 12.953 7.044 18.02a34.615 34.615 0 005.14 4.682c1.108.823 1.987 1.383 2.603 1.73 8.003 4.452 17.95 4.713 26.631.854l.367-.167-.31-.01c-5.224-.215-10.35-1.759-14.908-5.133l-.425-.321c-5.037-3.88-8.01-8.976-9.447-14.17-.188-.706.224-1.438.92-1.624a1.318 1.318 0 011.635.922c1.308 4.698 3.988 9.293 8.517 12.782 6.19 4.775 13.298 5.66 19.42 4.567a1.327 1.327 0 01.987 2.396c-5.608 3.873-12.19 5.986-18.82 6.104l-.585.005-.578-.005c-5.194-.091-10.236-1.41-14.69-3.883l-.332-.191-.414-.252a32.29 32.29 0 01-2.12-1.458 37.507 37.507 0 01-5.587-5.096c-4.953-5.544-7.849-12.15-7.696-19.8.218-11.165 7.245-21.544 17.9-26.464 10.658-4.918 23.602-3.217 32.993 4.329zm-1.623 23.401c.5 0 .957.281 1.18.725.199.4.187.87-.031 1.252l-.08.124-5.962 8.211h4.884c.686 0 1.254.52 1.322 1.185l.007.135c0 .686-.52 1.254-1.185 1.322l-.135.007h-7.483c-.5 0-.957-.281-1.179-.725a1.33 1.33 0 01.03-1.252l.081-.124 5.96-8.212-5.39.001a1.319 1.319 0 01-1.312-1.193l-.007-.136c0-.687.52-1.246 1.185-1.313l.135-.007h7.98zm-13.063-5.727c.5 0 .957.282 1.179.726.2.398.187.869-.03 1.251l-.081.124-5.961 8.211h5.225c.686 0 1.254.521 1.322 1.185l.007.135c0 .689-.523 1.254-1.193 1.322l-.136.007H43.23c-.5 0-.957-.28-1.179-.725a1.33 1.33 0 01.03-1.252l.08-.124 5.961-8.211h-5.224a1.329 1.329 0 01-1.322-1.193l-.007-.136c0-.689.522-1.246 1.193-1.313l.136-.007h7.815zm-13.425-9.17c.5 0 .957.28 1.18.725.196.394.188.86-.021 1.246l-.077.125-8.661 12.215h7.58c.689 0 1.258.525 1.323 1.202l.006.129a1.347 1.347 0 01-1.195 1.322l-.135.006H27.142c-.5 0-.957-.28-1.172-.712a1.32 1.32 0 01.013-1.257l.078-.127 8.659-12.216h-7.578a1.329 1.329 0 01-1.322-1.193l-.007-.136c0-.689.522-1.254 1.193-1.323l.136-.006h10.146z" fill="currentColor" fill-rule="evenodd"/></svg>