<svg xmlns="http://www.w3.org/2000/svg" viewBox="0 0 80 80"><path d="M42.844 13.578l15.012.001c1.134.083 2.56.379 4.071.997 2.276.932 4.253 2.416 5.73 4.566 1.946 2.848 2.408 6.064 2.063 9.07.253.27.399.64.374 1.038a16.917 16.917 0 01-.704 3.881 16.567 16.567 0 01-1.785 3.916l-.109.167.05.068c2.379 3.388 3.872 7.48 3.757 12.115l-.018.482c-.234 4.705-2.113 8.765-5.112 12.181a24.614 24.614 0 01-3.457 3.241 19.412 19.412 0 01-2.024 1.387c-.172.098-.36.162-.552.184l-.145.008H40.19a1.41 1.41 0 01-.7-.185c-.43-.25-.997-.622-1.743-1.192a24.397 24.397 0 01-3.514-3.285 21.942 21.942 0 01-3.272-4.886l.886.007a86.332 86.332 0 01-7.323-.34v6.172a3.705 3.705 0 01-3.503 3.704l-.197.005-.196-.005a3.705 3.705 0 01-3.364-2.686 3.76 3.76 0 01-.975.18l-.196.004-.197-.005a3.832 3.832 0 01-3.625-3.625l-.005-.197V57.63c-.09.013-.18.022-.272.027l-.184.005-.185-.005a3.255 3.255 0 01-3.061-3.062l-.005-.184v-1.025a3.254 3.254 0 013.707-3.219v-3.278a3.83 3.83 0 015.02-3.637 3.702 3.702 0 013.538-2.62 3.702 3.702 0 013.695 3.504l.005.197v6.126a60.386 60.386 0 014.377-.402c-.364-4.16.613-8.442 3.428-12.56l.084-.122-.11-.183a18.477 18.477 0 01-1.4-3.012l-.183-.531a18.048 18.048 0 01-.852-4.368 1.38 1.38 0 01.444-1.131 14.66 14.66 0 01.097-3.336c.367-2.602 1.41-5.02 3.307-7.065 2.544-2.741 5.711-3.931 8.798-4.15l.33-.02zm21.433 16.471l-.164.555a20.083 20.083 0 01-1.274 3.168 1.443 1.443 0 01-.99.74 1.391 1.391 0 01-1.182-.324c-2.555-2.277-6.07-3.99-10.335-4.102l-.444-.006h-.142c-4.407.038-7.995 1.766-10.647 4.106-.302.257-.684.386-1.046.342a1.389 1.389 0 01-.985-.55 7.727 7.727 0 01-1.47-3.614l-.031-.276-2.76.311.082.471c.092.485.208.966.345 1.44l.144.471a15.755 15.755 0 001.884 3.872 1.4 1.4 0 01.039 1.482l-.082.123-.13.167c-2.808 3.789-3.758 7.716-3.395 11.543h-.085a58.985 58.985 0 018.326.498v-6.212c0-2.042 1.657-3.7 3.7-3.7a3.704 3.704 0 013.562 2.7 3.821 3.821 0 014.98 3.438l.006.196v2.918a3.262 3.262 0 013.712 3.034l.005.184v1.025a3.248 3.248 0 01-3.066 3.246l-.185.005-.185-.005a3.255 3.255 0 01-.282-.028l.001 3.286a3.808 3.808 0 01-2.386 3.543l9.807-.001.18-.114c1.307-.852 2.815-2.101 4.232-3.714l.326-.379c2.456-2.923 3.975-6.309 4.168-10.147.227-4.561-1.37-8.533-3.806-11.628a1.409 1.409 0 01-.031-1.684 14.078 14.078 0 002.064-4.118c.146-.473.266-.953.358-1.438l.083-.485-2.901-.339zM20.824 43.427l-.113.007a.906.906 0 00-.784.784l-.007.114V63.17c0 .503.409.914.904.914.46 0 .846-.354.9-.808l.005-.106v-7.617a1.384 1.384 0 01-.002-.185l.002-11.037a.913.913 0 00-.792-.898l-.113-.007zm22.81-.078l-.113.007a.906.906 0 00-.785.784l-.007.114v18.839c0 .503.41.914.905.914a.906.906 0 00.899-.807l.006-.107V44.247a.897.897 0 00-.799-.892l-.106-.006zm-9.151 13.96l-.367.007a19.996 19.996 0 003.298 4.216c.903.888 1.78 1.605 2.568 2.157a3.425 3.425 0 01-.043-.39l-.005-.197v-6.11a88.04 88.04 0 01-4.363.28l-1.088.036zm-18.39-11.453l-.112.006c-.475.052-.857.43-.913.905l-.007.12v13.67c0 .572.459 1.03 1.032 1.03.529 0 .969-.402 1.025-.919l.006-.112V46.888c0-.531-.405-.97-.92-1.026l-.111-.006zm32.273 0l-.112.006c-.475.052-.857.43-.913.905l-.007.12v13.67c0 .572.46 1.03 1.032 1.03.529 0 .97-.402 1.025-.919l.007-.112V46.888c0-.535-.4-.97-.92-1.026l-.112-.006zM11.81 52.92l-.082.007a.46.46 0 00-.367.374l-.007.084v1.025c0 .254.208.466.456.466.223 0 .41-.163.448-.382l.008-.084v-1.025c0-.23-.162-.419-.374-.458l-.082-.007zm20.755-.17l-1.239.006-.702.017c-2.027.056-4.058.22-6.1.493v.936c2.102.192 4.202.306 6.273.341l.932.008c.097-.01.194-.01.289.001l.172.002c2.544 0 5.143-.122 7.744-.361v-.913a56.435 56.435 0 00-7.369-.53zm20.084-.182l-.082.008a.459.459 0 00-.367.367l-.007.081v1.025c0 .254.209.466.456.466.223 0 .41-.163.449-.382l.007-.084v-1.025a.458.458 0 00-.375-.448l-.081-.008zm5.288-31.824H42.892c-.386.014-.986.117-1.645.36-1.04.382-1.941 1.018-2.61 1.965-.283.401-.5.844-.656 1.322-.313.955-.37 1.978-.26 2.95.103.058.194.132.275.217.3.314.438.74.377 1.168a4.737 4.737 0 00.139 2.027l.083.258.14-.102c2.893-2.078 6.416-3.478 10.503-3.614l.474-.01h.156c4.285 0 7.992 1.395 11.027 3.537l.135.098.05-.128c.089-.235.17-.463.244-.688l.107-.335c.157-.489.29-1.006.397-1.544.09-.412.358-.748.707-.937.116-1.129-.045-2.762-.791-3.974a5.379 5.379 0 00-2.202-2.01 6.331 6.331 0 00-1.444-.527l-.161-.033zm-15.032-4.371c-2.426.107-5.072 1.05-7.139 3.275-1.515 1.63-2.333 3.593-2.607 5.728-.097.757-.119 1.492-.084 2.188l1.842-.207c-.025-.313-.04-.649-.037-.997.013-1.784.458-3.471 1.477-4.912.997-1.411 2.316-2.364 3.82-2.935a8.663 8.663 0 012.417-.552l.25-.012 15.252.002.096.01.01.003c.692.098 1.566.343 2.484.79 1.392.678 2.584 1.69 3.443 3.092.854 1.394 1.214 2.985 1.206 4.647-.001.306-.014.596-.036.867l1.678.196c.204-2.291-.192-4.725-1.628-6.825-1.15-1.676-2.694-2.836-4.482-3.571a10.968 10.968 0 00-2.883-.764l-.233-.023H42.905z" fill="currentColor" fill-rule="evenodd"/></svg>