<svg xmlns="http://www.w3.org/2000/svg" viewBox="0 0 80 80"><path d="M42.107 8c.372.012.81.084 1.285.26.719.269 1.349.726 1.823 1.41.675.98.787 2.023.607 2.955h2.202c.724-.041 1.488.13 2.153.658l.164.14.16.155a3.08 3.08 0 01.877 2.178l-.006.178v4.117a1.446 1.446 0 01-.037.299 9.251 9.251 0 011.81 2.97c.81 2.156.679 4.397.015 6.45a9.673 9.673 0 01-.804 1.567c-.316.49-.676.95-1.075 1.371l-.23.231-.01.026a1.04 1.04 0 00-.05.204l-.012.112c-.01.097.032.324.145.527.07.128.12.184.288.302l.093.065c.256.175.47.35.686.576.766.808 1.1 1.965 1.01 3.36l-.024.282-.002 31.012c-.078 1.054-.485 2.1-1.425 2.923a4.035 4.035 0 01-2.63 1.116l-.21.005H31.472l-.04-.003a.769.769 0 01-.115-.017l-.18-.025a4.716 4.716 0 01-2.515-1.213l-.187-.183c-.857-.89-1.243-1.918-1.343-2.946l-.017-.22V38.197c0-.937.104-1.584.533-2.353a3.58 3.58 0 01.726-.923l.155-.14c.2-.18.295-.281.397-.44l.063-.105c.211-.36.278-.531.273-.758a1.01 1.01 0 00-.154-.496l-.057-.083-.152-.14a5.416 5.416 0 01-.861-1.068l-.139-.239a5.812 5.812 0 01-.625-1.769l-.044-.301a13.508 13.508 0 01.01-4.562c.22-1.214.396-1.857.848-2.736a7.994 7.994 0 01.995-1.485 1.344 1.344 0 01-.108-.416l-.006-.133.001-4.257a3.015 3.015 0 01.749-2.172c.729-.824 1.647-1.071 2.551-1.01l.147.012h2.302a4.189 4.189 0 01-.09-.977 3.65 3.65 0 01.823-2.273 3.684 3.684 0 012.63-1.364l.197-.01h3.87zm6.347 13.428h-16.32a5.524 5.524 0 00-1.646 1.905c-.302.59-.412.994-.587 1.959a10.643 10.643 0 00-.059 3.268l.063.431a2.807 2.807 0 00.865 1.78l.204.186.084.085a.233.233 0 01.04.055c.511.647.84 1.412.86 2.3.013.628-.134 1.192-.398 1.742l-.083.166-.163.294c-.257.444-.466.7-.823 1.042l-.315.295c-.08.08-.123.14-.176.23-.128.226-.17.423-.178.77l-.001.158v30.67c.015.403.186.903.578 1.307.318.324.696.503 1.027.577l.139.025h17.287c.345.014.742-.09 1.065-.373a1.54 1.54 0 00.496-.862l.017-.118.003-31.087c.076-.727-.008-1.326-.237-1.565l-.04-.037-.185-.146-.062-.046a4.174 4.174 0 01-.663-.548 3.367 3.367 0 01-.55-.753c-.372-.687-.505-1.398-.47-1.984.022-.586.19-1.171.472-1.668.052-.104.121-.203.196-.283l.076-.073c.404-.378.76-.804 1.063-1.273.21-.325.393-.676.539-1.023.46-1.428.56-3.053-.003-4.55a6.545 6.545 0 00-.969-1.73 6.234 6.234 0 00-1.146-1.126zM40.179 31.64c.389 0 .757.16 1.011.443a31.196 31.196 0 012.717 3.381l.303.446c.605.91.879 1.477 1.038 2.083.534 2.018.177 3.61-.758 4.764-.867 1.073-2.217 1.677-3.829 1.74l-.287.006h-.188c-1.65-.042-2.994-.613-3.955-1.694-.867-1-1.349-2.318-1.203-3.992.05-.554.186-1.06.417-1.578l.1-.215.106-.21.11-.2c.233-.41.56-.897 1.149-1.744a25.129 25.129 0 012.262-2.79c.261-.277.627-.44 1.007-.44zm-.005 3.46l-.229.284c-.19.24-.37.476-.54.71l-.522.743-.272.398-.225.34c-.437.68-.573 1.015-.618 1.41l-.008.079c-.079.863.14 1.492.531 1.926.189.214.414.379.671.5.412.195.79.254 1.285.267.975.017 1.715-.25 2.09-.722.422-.521.513-1.294.238-2.334-.092-.336-.28-.708-.945-1.674a25.01 25.01 0 00-1.066-1.448l-.39-.479zm-8.347-19.703a.254.254 0 00-.068.036l-.024.022-.016.023-.016.03a.409.409 0 00-.035.134l-.003.079-.001 2.96c.082-.004.164 0 .244.01h16.59c.038-.01.077-.018.116-.025l.002-2.809.015-.121-.03-.08a.468.468 0 00-.089-.154.414.414 0 00-.22-.11l-.084-.01-16.02-.002-.066-.008h.018l-.07-.005a.598.598 0 00-.243.03zm10.06-4.64h-3.61a1.03 1.03 0 00-.639.274.313.313 0 00-.088.218v1.285h5.23v-1.412l-.047-.064c-.1-.122-.322-.3-.845-.3z" fill="currentColor" fill-rule="evenodd"/></svg>