<svg xmlns="http://www.w3.org/2000/svg" viewBox="0 0 24 24"><path fill="currentColor" fill-rule="evenodd" d="M2.834 9.222a1 1 0 01.66 1.25 8.895 8.895 0 00-.337 3.632 3.5 3.5 0 013.264 5.924 8.848 8.848 0 003.601 1.744 1 1 0 11-.443 1.95 10.873 10.873 0 01-5.115-2.753 3.5 3.5 0 01-3.148-5.716 10.895 10.895 0 01.268-5.37 1 1 0 011.25-.66zm19.583.662a10.936 10.936 0 01.345 4.947 3.5 3.5 0 01-3.143 6.057 10.863 10.863 0 01-5.197 2.834 1 1 0 11-.444-1.95 8.873 8.873 0 003.88-1.977 3.5 3.5 0 012.992-5.777 8.936 8.936 0 00-.345-3.546 1 1 0 011.912-.588zM4 16a1.5 1.5 0 100 3 1.5 1.5 0 000-3zm16.5 0a1.5 1.5 0 100 3 1.5 1.5 0 000-3zM12.25 0a3.501 3.501 0 013.439 2.845 10.913 10.913 0 014.294 2.849 1 1 0 01-1.466 1.36 8.944 8.944 0 00-3.06-2.153 3.501 3.501 0 01-6.483-.168 8.91 8.91 0 00-3.491 2.322 1 1 0 01-1.466-1.361 10.912 10.912 0 014.834-3.03A3.5 3.5 0 0112.25 0zm0 2a1.5 1.5 0 100 3 1.5 1.5 0 000-3z"/></svg>