<svg xmlns="http://www.w3.org/2000/svg" viewBox="0 0 24 24"><path fill="currentColor" fill-rule="evenodd" d="M18.5 4a1.5 1.5 0 011.497 1.412L20 5.5v13a1.5 1.5 0 01-1.412 1.497L18.5 20h-13a1.5 1.5 0 01-1.497-1.412L4 18.5v-13a1.5 1.5 0 011.412-1.497L5.5 4h13zm0 1h-13a.5.5 0 00-.497.442L5 5.5v13a.5.5 0 00.442.497L5.5 19h13a.5.5 0 00.497-.442L19 18.5v-13a.5.5 0 00-.442-.497L18.5 5zM12 6c1.776 0 3.468.56 4.89 1.616a.894.894 0 01.229 1.183l-.05.073-2.102 2.772a.9.9 0 01-1.253.178A2.847 2.847 0 0012 11.256c-.624 0-1.215.195-1.714.566a.899.899 0 01-1.2-.113l-.053-.065L6.93 8.872a.893.893 0 01.18-1.256A8.137 8.137 0 0112 6zm0 1a7.135 7.135 0 00-4.128 1.3l-.078.055 1.976 2.607.056-.039a3.836 3.836 0 011.674-.635V8.5a.5.5 0 111 0v1.788c.6.077 1.17.293 1.675.635l.054.039 1.977-2.607-.078-.055a7.122 7.122 0 00-3.712-1.288l-.213-.01L12 7z"/></svg>