<svg xmlns="http://www.w3.org/2000/svg" viewBox="0 0 24 24"><path fill="currentColor" fill-rule="evenodd" d="M20.415 3.488A11.812 11.812 0 0012.002 0C5.447 0 .112 5.335.109 11.892c0 2.096.547 4.142 1.588 5.945L.009 24l6.305-1.654a11.88 11.88 0 005.683 1.448h.005c6.554 0 11.89-5.336 11.893-11.893 0-3.178-1.235-6.165-3.48-8.413zm-8.413 18.297h-.004a9.86 9.86 0 01-5.031-1.378l-.361-.214-3.741.982.998-3.648-.235-.374a9.845 9.845 0 01-1.51-5.26c.001-5.45 4.436-9.884 9.888-9.884 2.64 0 5.122 1.03 6.988 2.898a9.829 9.829 0 012.893 6.994c-.003 5.45-4.437 9.884-9.885 9.884zm5.422-7.403c-.297-.149-1.758-.867-2.03-.967-.273-.099-.471-.148-.67.15-.197.297-.767.966-.94 1.164-.174.198-.347.223-.644.075-.297-.15-1.255-.463-2.39-1.475-.883-.788-1.48-1.761-1.653-2.059-.173-.297-.001-.443.13-.606.322-.4.644-.818.743-1.017.1-.198.05-.372-.024-.52-.075-.149-.669-1.612-.916-2.207-.242-.579-.487-.5-.67-.51-.172-.008-.37-.01-.569-.01-.198 0-.52.074-.792.372-.272.297-1.04 1.016-1.04 2.479 0 1.462 1.065 2.875 1.213 3.074.149.198 2.096 3.2 5.077 4.486.709.307 1.262.49 1.694.627.712.226 1.36.194 1.871.117.571-.085 1.758-.719 2.006-1.413.248-.694.248-1.289.173-1.413-.074-.124-.272-.198-.57-.347z"/></svg>